<svg width="27" height="27" viewBox="0 0 27 27" fill="none" xmlns="http://www.w3.org/2000/svg">
<g clip-path="url(#clip0)">
<path d="M6.36849 10.7895C6.36849 13.2563 8.37527 15.2631 10.842 15.2631C11.4236 15.2631 11.8947 15.7344 11.8947 16.3157C11.8947 16.8972 11.4236 17.3683 10.842 17.3683C7.2145 17.3683 4.26324 14.4171 4.26324 10.7895C4.26324 7.16177 7.2145 4.2105 10.842 4.2105C14.4698 4.2105 17.4211 7.16177 17.4211 10.7895C17.4211 11.3708 16.9497 11.8421 16.3684 11.8421C15.7871 11.8421 15.3158 11.3708 15.3158 10.7895C15.3158 8.32274 13.3088 6.31575 10.842 6.31575C8.37527 6.31575 6.36849 8.32274 6.36849 10.7895ZM7.19555 20.0998C4.49436 17.1419 2.16169 14.5872 2.15799 10.7792C2.16355 5.99646 6.05929 2.10525 10.842 2.10525C15.625 2.10525 19.5205 5.99646 19.5261 10.7792C19.5269 11.3603 19.998 11.8308 20.5787 11.8306H20.58C21.1613 11.83 21.6322 11.3581 21.6314 10.7767C21.6281 7.89737 20.5044 5.19103 18.4671 3.15602C16.4298 1.12081 13.7218 0 10.842 0C7.96246 0 5.25448 1.12081 3.217 3.15602C1.17993 5.19103 0.0560303 7.89737 0.0527344 10.779C0.0547943 12.8766 0.637343 14.8447 1.83396 16.7957C2.8699 18.485 4.21586 19.9589 5.64092 21.5195C7.03797 23.0496 8.4828 24.6316 9.63657 26.4572C9.8368 26.774 10.1781 26.9474 10.5273 26.9474C10.7197 26.9474 10.9141 26.8949 11.0888 26.7845C11.5801 26.4738 11.7268 25.8237 11.4161 25.3322C10.1629 23.3495 8.6544 21.6975 7.19555 20.0998ZM26.7241 20.6049C26.5165 20.8321 26.2322 20.9472 25.9471 20.9472C25.6933 20.9472 25.4389 20.8562 25.2371 20.6716L25.1052 20.5511V24.0343C25.1052 25.6696 23.7757 26.9999 22.1418 26.9999H16.2265C14.5926 26.9999 13.2631 25.6696 13.2631 24.0343V20.5993L13.184 20.6716C12.7549 21.064 12.0891 21.0342 11.6967 20.6051C11.3045 20.176 11.3344 19.51 11.7635 19.1178L17.1965 14.1505C18.3447 13.101 20.0763 13.101 21.2243 14.1505L24.7054 17.3333C24.7439 17.3638 24.7802 17.397 24.8139 17.4324L26.6576 19.1178C27.0867 19.51 27.1165 20.176 26.7241 20.6049ZM23 18.6263L19.8038 15.7043C19.4655 15.3951 18.9555 15.3951 18.6173 15.7043L15.3683 18.6743V24.0343C15.3683 24.5087 15.7533 24.8947 16.2267 24.8947H22.1418C22.615 24.8947 23 24.5087 23 24.0343V18.6263Z" fill="#A8A8A8"/>
</g>
<defs>
<clipPath id="clip0">
<rect width="27" height="27" fill="white"/>
</clipPath>
</defs>
</svg>
