<svg width="97" height="67" viewBox="0 0 97 67" fill="none" xmlns="http://www.w3.org/2000/svg">
<path d="M91.3785 0H5.62132C2.92154 0 0.857101 2.06443 0.857101 4.76422V36.5261C0.857101 39.2259 2.92154 41.2904 5.62132 41.2904H91.3785C94.0783 41.2904 96.1427 39.2259 96.1427 36.5261V4.76422C96.1429 2.06443 94.0783 0 91.3785 0ZM92.9667 36.5261C92.9667 37.479 92.3315 38.1142 91.3787 38.1142H5.62132C4.66848 38.1142 4.03331 37.479 4.03331 36.5261V4.76422C4.03331 3.81138 4.82741 3.17621 5.62132 3.17621H91.3785C92.3313 3.17621 92.9665 3.81138 92.9665 4.76422V36.5261H92.9667Z" fill="#A3A3A3"/>
<path d="M42.1474 14.2929H54.8523C55.8051 14.2929 56.4403 13.6577 56.4403 12.7049C56.4403 11.752 55.8051 11.1169 54.8523 11.1169H42.1474C41.1946 11.1169 40.5594 11.752 40.5594 12.7049C40.5594 13.6577 41.1946 14.2929 42.1474 14.2929Z" fill="#A3A3A3"/>
<path d="M88.2023 31.7619H8.79754C7.8447 31.7619 7.20953 32.3971 7.20953 33.3499C7.20953 34.3028 7.8447 34.938 8.79754 34.938H88.2023C89.1551 34.938 89.7903 34.3028 89.7903 33.3499C89.7903 32.3971 89.1551 31.7619 88.2023 31.7619Z" fill="#A3A3A3"/>
<path d="M88.2023 25.4095H8.79754C7.8447 25.4095 7.20953 26.0447 7.20953 26.9975C7.20953 27.9504 7.8447 28.5855 8.79754 28.5855H88.2023C89.1551 28.5855 89.7903 27.9504 89.7903 26.9975C89.7903 26.0447 89.1551 25.4095 88.2023 25.4095Z" fill="#A3A3A3"/>
<path d="M49.294 52.5659C47.706 51.7718 46.9119 50.819 46.9119 50.0249C46.9119 49.2308 47.8647 48.2779 49.1352 47.3251C49.9293 47.0074 50.0881 46.0546 49.7704 45.2607C49.4527 44.4666 48.4999 44.1491 47.706 44.6255C45.1649 46.0548 43.7357 47.9604 43.7357 50.0251C43.7357 52.0895 45.1649 53.9954 47.706 55.5834C49.294 56.3775 50.0881 57.3303 50.0881 58.1244C50.0881 58.9185 49.1352 59.8714 47.706 60.6653C46.9119 60.983 46.5944 61.9358 47.0708 62.7297C47.3885 63.2061 47.8649 63.5238 48.5001 63.5238C48.8178 63.5238 48.9765 63.5238 49.2942 63.3651C51.8352 61.9358 53.2645 60.0301 53.2645 57.9655C53.2645 55.9009 51.835 53.8364 49.294 52.5659Z" fill="#A3A3A3"/>
<path d="M31.8249 55.7422C30.2369 54.9481 29.4428 53.9952 29.4428 53.2011C29.4428 52.407 30.3957 51.4542 31.6662 50.5014C32.4603 50.1837 32.7778 49.2308 32.3014 48.4369C31.9837 47.6428 31.0308 47.3253 30.2369 47.8018C27.6959 49.231 26.2666 51.1367 26.2666 53.2013C26.2666 55.2658 27.6959 57.1716 30.2369 58.7597C31.8249 59.5538 32.619 60.5066 32.619 61.3007C32.619 62.0948 31.6662 63.0476 30.2369 63.8417C29.4428 64.1594 29.1253 65.1123 29.6018 65.9062C29.9194 66.3826 30.3959 66.7003 31.031 66.7003C31.3487 66.7003 31.5075 66.7003 31.8251 66.5415C34.3662 65.1123 35.7954 63.2066 35.7954 61.142C35.7954 59.0773 34.366 57.0127 31.8249 55.7422Z" fill="#A3A3A3"/>
<path d="M66.7631 55.7422C65.175 54.9481 64.3809 53.9952 64.3809 53.2011C64.3809 52.407 65.3338 51.4542 66.6043 50.5014C67.3984 50.1837 67.5572 49.2308 67.2395 48.4369C66.9218 47.6428 65.969 47.3253 65.175 47.8018C62.634 49.231 61.2047 51.1367 61.2047 53.2013C61.2047 55.2658 62.634 57.1716 65.175 58.7597C66.7631 59.5538 67.5572 60.5066 67.5572 61.3007C67.5572 62.0948 66.6043 63.0476 65.175 63.8417C64.3809 64.1594 64.0635 65.1123 64.5399 65.9062C64.8576 66.3826 65.334 66.7003 65.9691 66.7003C66.2868 66.7003 66.4456 66.7003 66.7632 66.5415C69.3043 65.1123 70.7336 63.2066 70.7336 61.142C70.7336 59.0773 69.3039 57.0127 66.7631 55.7422Z" fill="#A3A3A3"/>
</svg>
