<svg width="120" height="120" viewBox="0 0 120 120" fill="none" xmlns="http://www.w3.org/2000/svg">
<path d="M115.985 56.9132C109.361 52.2274 99.9956 51.2444 93.3054 51.2444H91.8393L68.5242 40.2715C65.62 38.9038 62.3903 38.1818 59.1858 38.1818H38.6046C36.6047 38.1818 34.659 38.5847 32.8205 39.3785L11.454 48.6137C10.2809 49.1211 9.03932 49.3784 7.76257 49.3784H6.34066C3.34626 49.3775 0.909088 51.8354 0.909088 54.8562V66.7085C0.909088 69.3246 2.75748 71.5861 5.30376 72.0854L12.1545 73.4294C13.0012 78.6944 17.5383 82.7273 22.9933 82.7273C27.0742 82.7273 30.6394 80.4694 32.5329 77.1285H91.1675C93.061 80.4694 96.6262 82.7273 100.707 82.7273C104.787 82.7273 108.353 80.4694 110.247 77.1285H113.659C116.654 77.1285 119.091 74.6715 119.091 71.6507V62.9348C119.091 60.5405 117.93 58.289 115.985 56.9132ZM67.06 43.4359L83.6522 51.2444H58.946L50.8112 41.6737H59.1849C61.8881 41.6737 64.6111 42.2829 67.06 43.4359ZM46.2515 41.6737L54.3863 51.2444H51.4514C50.3351 51.2444 49.2775 50.7543 48.5508 49.8986L41.5602 41.6737H46.2515ZM33.7961 73.6367C33.9124 72.992 33.9764 72.3291 33.9764 71.6507C33.9764 70.9069 33.9025 70.1621 33.7564 69.4374C33.5662 68.4926 32.6528 67.8824 31.716 68.0734C30.7782 68.2653 30.1732 69.1873 30.3635 70.1321C30.4636 70.6277 30.5141 71.1388 30.5141 71.6507C30.5141 75.8327 27.1401 79.2345 22.9933 79.2345C18.8466 79.2345 15.4735 75.8327 15.4735 71.6507C15.4735 67.4687 18.8466 64.066 22.9933 64.066C24.0438 64.066 25.0581 64.2797 26.0103 64.7007C26.8849 65.0871 27.9065 64.6852 28.2906 63.8023C28.6747 62.9193 28.2761 61.8899 27.4006 61.5026C26.0076 60.8869 24.5244 60.5741 22.9933 60.5741C17.5383 60.5741 13.0012 64.607 12.1545 69.8721L5.96467 68.6581C5.04138 68.4771 4.37054 67.6569 4.37054 66.7085V60.3341H6.34066C7.29642 60.3341 8.07184 59.552 8.07184 58.5881C8.07184 57.6243 7.29642 56.8422 6.34066 56.8422H4.37145V54.8562C4.37145 53.7605 5.25507 52.8703 6.34066 52.8703H7.76257C9.51088 52.8703 11.2114 52.5174 12.8182 51.8236L34.1838 42.5884C35.1206 42.1838 36.0935 41.9155 37.0898 41.7791L45.9224 52.171C47.3074 53.8014 49.3226 54.7362 51.4514 54.7362H93.3054C97.9317 54.7362 106.186 55.2827 112.302 58.7082H111.809C110.852 58.7082 110.078 59.4902 110.078 60.4541C110.078 61.4189 110.852 62.2 111.809 62.2H115.557C115.603 62.4401 115.629 62.6856 115.629 62.9348V66.1729H110.247C108.353 62.832 104.788 60.575 100.707 60.575C96.6262 60.575 93.061 62.832 91.1675 66.1729H87.7557C86.799 66.1729 86.0245 66.954 86.0245 67.9188C86.0245 68.8827 86.799 69.6647 87.7557 69.6647H89.9043C89.788 70.3094 89.724 70.9723 89.724 71.6507C89.724 72.3291 89.788 72.992 89.9043 73.6367H33.7961ZM100.707 79.2345C96.5603 79.2345 93.1863 75.8327 93.1863 71.6507C93.1863 67.4687 96.5603 64.066 100.707 64.066C104.854 64.066 108.228 67.4687 108.228 71.6507C108.228 75.8327 104.854 79.2345 100.707 79.2345ZM113.659 73.6367H111.51C111.626 72.992 111.69 72.3291 111.69 71.6507C111.69 70.9723 111.626 70.3094 111.51 69.6647H115.629V71.6507C115.629 72.7455 114.745 73.6367 113.659 73.6367Z" fill="#00b394"/>
<path d="M115.985 56.9132C109.361 52.2274 99.9956 51.2444 93.3054 51.2444H91.8393L68.5242 40.2715C65.62 38.9038 62.3903 38.1818 59.1858 38.1818H38.6046C36.6047 38.1818 34.659 38.5847 32.8205 39.3785L11.454 48.6137C10.2809 49.1211 9.03932 49.3784 7.76257 49.3784H6.34066C3.34626 49.3775 0.909088 51.8354 0.909088 54.8562V66.7085C0.909088 69.3246 2.75748 71.5861 5.30376 72.0854L12.1545 73.4294C13.0012 78.6944 17.5383 82.7273 22.9933 82.7273C27.0742 82.7273 30.6394 80.4694 32.5329 77.1285H91.1675C93.061 80.4694 96.6262 82.7273 100.707 82.7273C104.787 82.7273 108.353 80.4694 110.247 77.1285H113.659C116.654 77.1285 119.091 74.6715 119.091 71.6507V62.9348C119.091 60.5405 117.93 58.289 115.985 56.9132ZM67.06 43.4359L83.6522 51.2444H58.946L50.8112 41.6737H59.1849C61.8881 41.6737 64.6111 42.2829 67.06 43.4359ZM46.2515 41.6737L54.3863 51.2444H51.4514C50.3351 51.2444 49.2775 50.7543 48.5508 49.8986L41.5602 41.6737H46.2515ZM33.7961 73.6367C33.9124 72.992 33.9764 72.3291 33.9764 71.6507C33.9764 70.9069 33.9025 70.1621 33.7564 69.4374C33.5662 68.4926 32.6528 67.8824 31.716 68.0734C30.7782 68.2653 30.1732 69.1873 30.3635 70.1321C30.4636 70.6277 30.5141 71.1388 30.5141 71.6507C30.5141 75.8327 27.1401 79.2345 22.9933 79.2345C18.8466 79.2345 15.4735 75.8327 15.4735 71.6507C15.4735 67.4687 18.8466 64.066 22.9933 64.066C24.0438 64.066 25.0581 64.2797 26.0103 64.7007C26.8849 65.0871 27.9065 64.6852 28.2906 63.8023C28.6747 62.9193 28.2761 61.8899 27.4006 61.5026C26.0076 60.8869 24.5244 60.5741 22.9933 60.5741C17.5383 60.5741 13.0012 64.607 12.1545 69.8721L5.96467 68.6581C5.04138 68.4771 4.37054 67.6569 4.37054 66.7085V60.3341H6.34066C7.29642 60.3341 8.07184 59.552 8.07184 58.5881C8.07184 57.6243 7.29642 56.8422 6.34066 56.8422H4.37145V54.8562C4.37145 53.7605 5.25507 52.8703 6.34066 52.8703H7.76257C9.51088 52.8703 11.2114 52.5174 12.8182 51.8236L34.1838 42.5884C35.1206 42.1838 36.0935 41.9155 37.0898 41.7791L45.9224 52.171C47.3074 53.8014 49.3226 54.7362 51.4514 54.7362H93.3054C97.9317 54.7362 106.186 55.2827 112.302 58.7082H111.809C110.852 58.7082 110.078 59.4902 110.078 60.4541C110.078 61.4189 110.852 62.2 111.809 62.2H115.557C115.603 62.4401 115.629 62.6856 115.629 62.9348V66.1729H110.247C108.353 62.832 104.788 60.575 100.707 60.575C96.6262 60.575 93.061 62.832 91.1675 66.1729H87.7557C86.799 66.1729 86.0245 66.954 86.0245 67.9188C86.0245 68.8827 86.799 69.6647 87.7557 69.6647H89.9043C89.788 70.3094 89.724 70.9723 89.724 71.6507C89.724 72.3291 89.788 72.992 89.9043 73.6367H33.7961ZM100.707 79.2345C96.5603 79.2345 93.1863 75.8327 93.1863 71.6507C93.1863 67.4687 96.5603 64.066 100.707 64.066C104.854 64.066 108.228 67.4687 108.228 71.6507C108.228 75.8327 104.854 79.2345 100.707 79.2345ZM113.659 73.6367H111.51C111.626 72.992 111.69 72.3291 111.69 71.6507C111.69 70.9723 111.626 70.3094 111.51 69.6647H115.629V71.6507C115.629 72.7455 114.745 73.6367 113.659 73.6367Z" stroke="#00b394"/>
<path d="M81.7387 65.9162H58.1931L54.2115 60.607C53.1751 59.2255 51.5253 58.4006 49.7986 58.4006H42.284C41.6175 58.4006 41.0096 58.7769 40.712 59.3729C40.4136 59.968 40.4776 60.6812 40.8777 61.2131L45.3867 67.2254C46.4222 68.6069 48.072 69.4318 49.7986 69.4318H81.7387C82.7092 69.4318 83.4965 68.6445 83.4965 67.674C83.4965 66.7026 82.7092 65.9162 81.7387 65.9162ZM49.7986 65.9162C49.1724 65.9162 48.5746 65.6168 48.1992 65.116L45.7996 61.9162H49.7986C50.4249 61.9162 51.0227 62.2156 51.399 62.7164L53.7986 65.9162H49.7986Z" fill="#00b394"/>
<path d="M81.7387 65.9162H58.1931L54.2115 60.607C53.1751 59.2255 51.5253 58.4006 49.7986 58.4006H42.284C41.6175 58.4006 41.0096 58.7769 40.712 59.3729C40.4136 59.968 40.4776 60.6812 40.8777 61.2131L45.3867 67.2254C46.4222 68.6069 48.072 69.4318 49.7986 69.4318H81.7387C82.7092 69.4318 83.4965 68.6445 83.4965 67.674C83.4965 66.7026 82.7092 65.9162 81.7387 65.9162ZM49.7986 65.9162C49.1724 65.9162 48.5746 65.6168 48.1992 65.116L45.7996 61.9162H49.7986C50.4249 61.9162 51.0227 62.2156 51.399 62.7164L53.7986 65.9162H49.7986Z" stroke="#00b394"/>
<path d="M23.4955 67.7948C21.4905 67.7948 19.859 69.4263 19.859 71.4313C19.859 73.4363 21.4905 75.0678 23.4955 75.0678C25.5014 75.0678 27.132 73.4363 27.132 71.4313C27.132 69.4263 25.5014 67.7948 23.4955 67.7948Z" fill="#00b394"/>
<path d="M23.4955 67.7948C21.4905 67.7948 19.859 69.4263 19.859 71.4313C19.859 73.4363 21.4905 75.0678 23.4955 75.0678C25.5014 75.0678 27.132 73.4363 27.132 71.4313C27.132 69.4263 25.5014 67.7948 23.4955 67.7948Z" stroke="#00b394"/>
<path d="M102.405 67.7948C100.4 67.7948 98.7685 69.4263 98.7685 71.4313C98.7685 73.4363 100.4 75.0678 102.405 75.0678C104.41 75.0678 106.041 73.4363 106.041 71.4313C106.041 69.4263 104.41 67.7948 102.405 67.7948Z" fill="#00b394"/>
<path d="M102.405 67.7948C100.4 67.7948 98.7685 69.4263 98.7685 71.4313C98.7685 73.4363 100.4 75.0678 102.405 75.0678C104.41 75.0678 106.041 73.4363 106.041 71.4313C106.041 69.4263 104.41 67.7948 102.405 67.7948Z" stroke="#00b394"/>
</svg>
