<svg width="84" height="84" viewBox="0 0 84 84" fill="none" xmlns="http://www.w3.org/2000/svg">
<g clip-path="url(#clip0)">
<path d="M41.9972 68.0292H42.0197C42.9657 68.0292 43.7328 68.7962 43.7328 69.7423C43.7328 70.6885 42.9657 71.4555 42.0197 71.4555H41.9972C41.0512 71.4555 40.2841 70.6885 40.2841 69.7423C40.2841 68.7962 41.0512 68.0292 41.9972 68.0292Z" fill="#A3A3A3"/>
<path d="M42.0197 68.0292H42.0422C42.9882 68.0292 43.7553 68.7962 43.7553 69.7423C43.7553 70.6885 42.9882 71.4555 42.0422 71.4555H42.0197C41.0737 71.4555 40.3066 70.6885 40.3066 69.7423C40.3066 68.7962 41.0737 68.0292 42.0197 68.0292Z" fill="#A3A3A3"/>
<path d="M82.2644 79.632H82.2869C83.2328 79.632 84 80.399 84 81.3452C84 82.2913 83.2328 83.0583 82.2869 83.0583H82.2644C81.3184 83.0583 80.5512 82.2913 80.5512 81.3452C80.5512 80.399 81.3184 79.632 82.2644 79.632Z" fill="#A3A3A3"/>
<path d="M1.76927 79.6318H1.79174C2.73772 79.6318 3.50488 80.3988 3.50488 81.345C3.50488 82.2911 2.73772 83.0581 1.79174 83.0581H1.76927C0.823282 83.0581 0.0561295 82.2911 0.0561295 81.345C0.0561295 80.3987 0.823282 79.6318 1.76927 79.6318Z" fill="#A3A3A3"/>
<path d="M35.7802 33.8912C36.836 33.8912 37.6952 34.7502 37.6952 35.8061C37.6952 36.8619 36.836 37.7209 35.7802 37.7209C34.7245 37.7209 33.8656 36.8619 33.8654 35.8061C33.8654 34.7501 34.7245 33.8912 35.7802 33.8912Z" fill="#A3A3A3"/>
<path d="M48.2759 33.8912C49.3316 33.8912 50.1906 34.7502 50.1906 35.8061C50.1906 36.8619 49.3316 37.7209 48.2759 37.7209C47.2201 37.7209 46.3609 36.8619 46.3609 35.8061C46.3609 34.7501 47.2201 33.8912 48.2759 33.8912Z" fill="#A3A3A3"/>
<path d="M40.3468 41.9626H43.6949C44.6409 41.9626 45.4081 42.7296 45.4081 43.6758C45.4081 45.5434 43.8885 47.063 42.0208 47.063C40.1532 47.063 38.6338 45.5436 38.6336 43.6758C38.6336 42.7296 39.4008 41.9626 40.3468 41.9626Z" fill="#A3A3A3"/>
<path d="M71.0962 72.1675L75.0937 68.1701L73.7612 66.8374C73.0921 66.1684 73.0921 65.0836 73.7612 64.4147C74.4304 63.7457 75.5147 63.7457 76.1841 64.4147L81.2718 69.5026C81.9409 70.1717 81.9409 71.2565 81.2718 71.9253C80.9373 72.2599 80.4989 72.427 80.0604 72.427C79.6218 72.427 79.1836 72.2597 78.8489 71.9253L77.5166 70.5928L73.519 74.5902C73.1845 74.9247 72.7461 75.0919 72.3076 75.0919C71.8692 75.0919 71.4308 74.9246 71.0963 74.5902C70.4269 73.9212 70.4269 72.8364 71.0962 72.1675Z" fill="#A3A3A3"/>
<path d="M0.501716 21.0044L5.58945 15.9165C6.25833 15.2475 7.34262 15.2475 8.01233 15.9165C8.68137 16.5856 8.68137 17.6702 8.01233 18.3392L6.67981 19.6719L10.6774 23.6693C11.3464 24.3383 11.3464 25.4231 10.6774 26.092C10.3428 26.4265 9.90446 26.5937 9.46592 26.5937C9.02738 26.5937 8.58917 26.4264 8.25448 26.092L4.25694 22.0946L2.92459 23.4271C2.59006 23.7617 2.15169 23.9288 1.71315 23.9288C1.27461 23.9288 0.836403 23.7615 0.501716 23.4271C-0.167331 22.7581 -0.167331 21.6733 0.501716 21.0044Z" fill="#A3A3A3"/>
<path d="M3.81674 46.0545H19.0746C20.0205 46.0545 20.7877 46.8215 20.7877 47.7676V57.0214C20.7877 57.9675 20.0205 58.7345 19.0746 58.7345H15.2145V79.632H16.8385V68.0485C16.8385 64.709 18.8539 61.5374 21.7391 60.3351L32.7646 55.7414C33.1565 55.5781 33.4098 55.1982 33.4098 54.7732V52.1058L28.9318 49.5382C28.9006 49.5201 28.8699 49.5014 28.8399 49.4814C26.5976 48.0007 25.1255 45.3675 24.9016 42.4374C24.8981 42.3941 24.8966 42.3504 24.8966 42.3068V40.8845C22.6719 40.1609 21.0594 38.0674 21.0594 35.6045C21.0594 33.1416 22.6721 31.0478 24.8968 30.3243V29.0945H22.7792C21.4915 29.0945 20.444 28.047 20.444 26.7592V23.2746C20.444 22.1484 21.2453 21.2059 22.3074 20.987C22.9325 16.5995 24.9936 12.539 28.2061 9.42178C30.5082 7.18807 33.2957 5.54466 36.3329 4.62016V3.35508C36.3329 2.02453 37.3805 0.942047 38.6685 0.942047H45.389C46.6769 0.942047 47.7246 2.02453 47.7246 3.35508V4.52222C50.8915 5.42571 53.7933 7.10276 56.183 9.42178C59.4201 12.5626 61.488 16.6607 62.096 21.087C62.9814 21.4192 63.6133 22.2743 63.6133 23.2746V26.7592C63.6133 28.047 62.5657 29.0945 61.278 29.0945H59.1601V30.3243C61.3848 31.048 62.9974 33.1414 62.9974 35.6043C62.9974 38.0673 61.3848 40.1609 59.1601 40.8844V42.3066C59.1601 42.3501 59.1585 42.3937 59.1552 42.4372C58.9303 45.3794 57.4683 48.0126 55.2444 49.4812C55.2137 49.5016 55.1826 49.5208 55.1506 49.539L50.6469 52.1136V54.7731C50.6469 55.1978 50.9002 55.5778 51.2923 55.7412L62.3178 60.3351C65.2032 61.5374 67.2184 64.7094 67.2184 68.0484V79.6318H76.722C77.668 79.6318 78.4352 80.3988 78.4352 81.345C78.4352 82.2911 77.668 83.0581 76.722 83.0581H7.33391C6.38792 83.0581 5.62077 82.2911 5.62077 81.345C5.62077 80.3988 6.38792 79.6318 7.33391 79.6318H7.67648V58.7345H3.81657C2.87059 58.7345 2.10343 57.9675 2.10343 57.0214V47.7676C2.1036 46.8215 2.87075 46.0545 3.81674 46.0545ZM60.1861 25.6679V24.3301C59.4439 24.1781 58.872 23.5449 58.822 22.761C58.5583 18.6336 56.7737 14.7694 53.7961 11.8804C51.5328 9.68445 48.7187 8.18278 45.6574 7.53785C44.8648 7.37084 44.2975 6.67144 44.2975 5.86162V4.36816H39.7587V5.9348C39.7587 6.73296 39.2076 7.4253 38.4298 7.6043C35.4874 8.28155 32.777 9.76024 30.5917 11.8806C27.6145 14.7694 25.8297 18.6336 25.566 22.7612C25.5088 23.6585 24.7677 24.3582 23.8699 24.3651V25.6681H60.1861V25.6679ZM53.3976 46.5941C54.7066 45.7076 55.5757 44.0867 55.7333 42.2376V39.4416C55.7333 38.4955 56.5005 37.7285 57.4465 37.7285C58.6177 37.7285 59.5706 36.7754 59.5706 35.6043C59.5706 34.4333 58.6175 33.4802 57.4465 33.4802C56.5005 33.4802 55.7333 32.7132 55.7333 31.7671V29.0943H28.3231V31.7671C28.3231 32.7132 27.5559 33.4802 26.6099 33.4802C25.4387 33.4802 24.4858 34.4333 24.4858 35.6043C24.4858 36.7754 25.4387 37.7285 26.6099 37.7285C27.5559 37.7285 28.3231 38.4955 28.3231 39.4416V42.2372C28.4786 44.0488 29.3795 45.7091 30.6874 46.5946L39.8851 51.8687C39.9162 51.8867 39.9469 51.9054 39.9769 51.9254C41.2614 52.7736 42.7945 52.7736 44.079 51.9254C44.1097 51.9053 44.1408 51.8859 44.1728 51.8677L53.3976 46.5941ZM36.8325 54.8771C38.0613 56.503 39.9609 57.4604 42.0197 57.4604C44.0887 57.4604 45.9947 56.4954 47.2229 54.8566C47.2224 54.8287 47.2198 54.8013 47.2198 54.7731V54.0722L45.918 54.8164C44.7154 55.5973 43.3717 55.9878 42.0277 55.9878C40.6834 55.9878 39.3392 55.597 38.1365 54.8157L36.836 54.0701V54.7731C36.8363 54.808 36.8332 54.8423 36.8325 54.8771ZM60.0933 79.632H63.7913V68.0485C63.7913 66.1177 62.5908 64.1612 60.9991 63.4979L60.0933 63.1206V79.632ZM56.667 79.632V61.6927L53.4977 60.3722V69.7421C53.4977 70.6883 52.7305 71.4553 51.7845 71.4553H47.5842C46.6382 71.4553 45.871 70.6883 45.871 69.7421C45.871 68.796 46.6382 68.029 47.5842 68.029H50.0714V58.9445L49.9736 58.9037C49.5467 58.7257 49.1589 58.4868 48.8173 58.2008C47 59.9123 44.5918 60.8865 42.0198 60.8865C39.4534 60.8865 37.0478 59.9148 35.2308 58.2084C34.891 58.4914 34.5059 58.7275 34.0825 58.9038L33.968 58.9514V68.0288H36.4552C37.4011 68.0288 38.1683 68.7958 38.1683 69.742C38.1683 70.6881 37.4011 71.4551 36.4552 71.4551H32.2548C31.3089 71.4551 30.5417 70.6881 30.5417 69.742V60.3789L27.3723 61.6995V79.6315H56.667V79.632ZM20.2648 79.632H23.9461V63.1273L23.057 63.4979C21.4653 64.1611 20.265 66.1175 20.265 68.0485V79.632H20.2648ZM11.1028 79.632H11.788V58.7345H11.1028V79.632ZM5.52988 55.3083H17.3612V49.4806H5.52988V55.3083Z" fill="#A3A3A3"/>
<path d="M65.0122 48.9097L68.1957 44.8449L66.8461 40.6511C66.6898 40.1651 66.7582 39.6347 67.033 39.2044L69.3207 35.6216L68.3077 32.5083C68.1553 32.0396 68.2119 31.5281 68.4634 31.1043L70.4556 27.7463L69.6478 24.3415C69.5382 23.8801 69.6248 23.394 69.887 22.999L72.0825 19.6898L70.4965 16.483C70.2906 16.0667 70.2627 15.5845 70.4189 15.1471L71.9504 10.8614L71.3083 6.95872C71.2249 6.45128 71.3737 5.93317 71.7137 5.54762L73.627 3.3779C73.9521 3.00908 74.4204 2.79761 74.9121 2.79761H82.2644C83.2104 2.79761 83.9775 3.5646 83.9775 4.51075V56.9899C83.9775 57.9361 83.2104 58.7031 82.2644 58.7031H66.361C65.415 58.7031 64.6478 57.9361 64.6478 56.9899V49.9661C64.6478 49.5831 64.7761 49.2112 65.0122 48.9097ZM80.5512 6.22389H75.6855L74.8212 7.20433L75.4031 10.7427C75.4502 11.0294 75.4236 11.3236 75.326 11.5974L73.8898 15.616L75.591 19.0555C75.8617 19.603 75.8205 20.2532 75.4828 20.7621L73.1527 24.274L73.9487 27.6295C74.0512 28.0618 73.982 28.5169 73.7553 28.8991L71.8054 32.1858L72.829 35.3317C72.9875 35.8191 72.9194 36.3517 72.6437 36.7836L70.3544 40.3692L71.1849 42.9498H80.5512V6.22389ZM68.0741 55.2768H80.5512V46.3756H71.3491L68.0741 50.5572V55.2768Z" fill="#A3A3A3"/>
<path d="M73.7984 49.6281H77.7387C78.6847 49.6281 79.4519 50.3951 79.4519 51.3412C79.4519 52.2874 78.6847 53.0544 77.7387 53.0544H73.7984C72.8525 53.0544 72.0853 52.2874 72.0853 51.3412C72.0853 50.3951 72.8525 49.6281 73.7984 49.6281Z" fill="#A3A3A3"/>
<path d="M44.2291 11.6947C44.4104 10.7659 45.3106 10.1592 46.2382 10.3408C48.3691 10.7559 50.3304 11.725 51.9109 13.1432C54.0199 15.0358 55.2846 17.5786 55.473 20.3032C55.5381 21.2472 54.8258 22.0652 53.8817 22.1302C53.8417 22.133 53.8017 22.1343 53.7621 22.1343C52.8696 22.1343 52.1172 21.443 52.0544 20.5391C51.9281 18.7085 51.0643 16.9875 49.6219 15.6931C48.5026 14.6885 47.106 14.0004 45.5828 13.7038C44.6544 13.523 44.048 12.6233 44.2291 11.6947Z" fill="#A3A3A3"/>
</g>
<defs>
<clipPath id="clip0">
<rect width="84" height="84" fill="white" transform="matrix(-1 0 0 1 84 0)"/>
</clipPath>
</defs>
</svg>
