<svg width="69" height="69" viewBox="0 0 69 69" fill="none" xmlns="http://www.w3.org/2000/svg">
<g clip-path="url(#clip0)">
<path d="M34.4977 55.8811H34.5162C35.2932 55.8811 35.9234 56.5111 35.9234 57.2883C35.9234 58.0655 35.2932 58.6955 34.5162 58.6955H34.4977C33.7207 58.6955 33.0905 58.0655 33.0905 57.2883C33.0905 56.5111 33.7207 55.8811 34.4977 55.8811Z" fill="#00b394"/>
<path d="M34.5162 55.8811H34.5346C35.3117 55.8811 35.9419 56.5111 35.9419 57.2883C35.9419 58.0655 35.3117 58.6955 34.5346 58.6955H34.5162C33.7391 58.6955 33.109 58.0655 33.109 57.2883C33.109 56.5111 33.7391 55.8811 34.5162 55.8811Z" fill="#00b394"/>
<path d="M67.5743 65.412H67.5928C68.3698 65.412 69 66.042 69 66.8192C69 67.5964 68.3698 68.2264 67.5928 68.2264H67.5743C66.7973 68.2264 66.1671 67.5964 66.1671 66.8192C66.1671 66.042 66.7973 65.412 67.5743 65.412Z" fill="#00b394"/>
<path d="M1.45331 65.4119H1.47177C2.24883 65.4119 2.879 66.0419 2.879 66.8191C2.879 67.5963 2.24883 68.2263 1.47177 68.2263H1.45331C0.676252 68.2263 0.0460892 67.5963 0.0460892 66.8191C0.0460892 66.0418 0.676252 65.4119 1.45331 65.4119Z" fill="#00b394"/>
<path d="M29.3909 27.8392C30.2581 27.8392 30.9639 28.5448 30.9639 29.4122C30.9639 30.2794 30.2581 30.985 29.3909 30.985C28.5237 30.985 27.8182 30.2794 27.818 29.4122C27.818 28.5447 28.5237 27.8392 29.3909 27.8392Z" fill="#00b394"/>
<path d="M39.6552 27.8392C40.5224 27.8392 41.228 28.5448 41.228 29.4122C41.228 30.2794 40.5224 30.985 39.6552 30.985C38.788 30.985 38.0822 30.2794 38.0822 29.4122C38.0822 28.5447 38.788 27.8392 39.6552 27.8392Z" fill="#00b394"/>
<path d="M33.142 34.4693H35.8923C36.6693 34.4693 37.2995 35.0993 37.2995 35.8765C37.2995 37.4107 36.0513 38.6589 34.5171 38.6589C32.9829 38.6589 31.7349 37.4108 31.7347 35.8765C31.7347 35.0993 32.3649 34.4693 33.142 34.4693Z" fill="#00b394"/>
<path d="M58.4004 59.2804L61.6841 55.9969L60.5895 54.9022C60.04 54.3526 60.04 53.4615 60.5895 52.9121C61.1393 52.3625 62.0299 52.3625 62.5798 52.9121L66.759 57.0914C67.3086 57.641 67.3086 58.5321 66.759 59.0815C66.4842 59.3563 66.1241 59.4936 65.7639 59.4936C65.4036 59.4936 65.0437 59.3562 64.7688 59.0815L63.6743 57.987L60.3906 61.2705C60.1158 61.5453 59.7558 61.6826 59.3955 61.6826C59.0354 61.6826 58.6753 61.5452 58.4005 61.2705C57.8507 60.721 57.8507 59.8299 58.4004 59.2804Z" fill="#00b394"/>
<path d="M0.412119 17.2536L4.59133 13.0743C5.14077 12.5247 6.03144 12.5247 6.58155 13.0743C7.13112 13.6239 7.13112 14.5148 6.58155 15.0644L5.48698 16.1591L8.77068 19.4426C9.32025 19.9922 9.32025 20.8833 8.77068 21.4327C8.49589 21.7075 8.1358 21.8448 7.77557 21.8448C7.41534 21.8448 7.05538 21.7074 6.78046 21.4327L3.49677 18.1492L2.40233 19.2437C2.12755 19.5185 1.76745 19.6558 1.40722 19.6558C1.047 19.6558 0.68704 19.5184 0.412119 19.2437C-0.137455 18.6942 -0.137455 17.8031 0.412119 17.2536Z" fill="#00b394"/>
<path d="M3.13519 37.8305H15.6684C16.4454 37.8305 17.0756 38.4605 17.0756 39.2377V46.839C17.0756 47.6162 16.4454 48.2462 15.6684 48.2462H12.4976V65.412H13.8317V55.897C13.8317 53.1539 15.4871 50.5486 17.8571 49.561L26.9138 45.7876C27.2357 45.6535 27.4438 45.3414 27.4438 44.9923V42.8012L23.7654 40.6921C23.7398 40.6773 23.7146 40.6619 23.6899 40.6455C21.8481 39.4292 20.6388 37.2662 20.4549 34.8593C20.452 34.8237 20.4508 34.7879 20.4508 34.752V33.5837C18.6234 32.9893 17.2988 31.2697 17.2988 29.2466C17.2988 27.2235 18.6235 25.5036 20.451 24.9093V23.8991H18.7115C17.6538 23.8991 16.7933 23.0386 16.7933 21.9808V19.1184C16.7933 18.1934 17.4515 17.4191 18.3239 17.2394C18.8374 13.6353 20.5305 10.2999 23.1693 7.73933C25.0603 5.9045 27.35 4.55455 29.8449 3.79514V2.75597C29.8449 1.66302 30.7054 0.773834 31.7634 0.773834H37.2838C38.3418 0.773834 39.2024 1.66302 39.2024 2.75597V3.71469C41.8038 4.45684 44.1874 5.83442 46.1504 7.73933C48.8094 10.3193 50.508 13.6856 51.0074 17.3214C51.7348 17.5943 52.2538 18.2967 52.2538 19.1184V21.9808C52.2538 23.0386 51.3933 23.8991 50.3355 23.8991H48.5958V24.9093C50.4232 25.5037 51.7478 27.2233 51.7478 29.2464C51.7478 31.2695 50.4232 32.9893 48.5958 33.5836V34.7519C48.5958 34.7876 48.5945 34.8234 48.5918 34.8592C48.407 37.2759 47.2061 39.4389 45.3794 40.6453C45.3542 40.662 45.3286 40.6778 45.3023 40.6928L41.6028 42.8076V44.9922C41.6028 45.3411 41.8109 45.6532 42.133 45.7874L51.1896 49.561C53.5598 50.5486 55.2151 53.1541 55.2151 55.8969V65.4119H63.0217C63.7987 65.4119 64.4289 66.0419 64.4289 66.8191C64.4289 67.5963 63.7987 68.2263 63.0217 68.2263H6.02429C5.24723 68.2263 4.61707 67.5963 4.61707 66.8191C4.61707 66.0419 5.24723 65.4119 6.02429 65.4119H6.30568V48.2462H3.13505C2.35799 48.2462 1.72783 47.6162 1.72783 46.839V39.2377C1.72797 38.4605 2.35813 37.8305 3.13519 37.8305ZM49.4386 21.0844V19.9855C48.829 19.8606 48.3592 19.3405 48.3181 18.6966C48.1015 15.3061 46.6355 12.132 44.1896 9.75893C42.3306 7.95509 40.0189 6.72158 37.5043 6.19182C36.8533 6.05462 36.3873 5.48012 36.3873 4.81492V3.58814H32.659V4.87502C32.659 5.53066 32.2063 6.09937 31.5674 6.2464C29.1503 6.80271 26.924 8.01735 25.1289 9.75906C22.6833 12.132 21.2172 15.3061 21.0007 18.6967C20.9536 19.4338 20.3449 20.0085 19.6075 20.0142V21.0845H49.4386V21.0844ZM43.8623 38.2737C44.9376 37.5456 45.6514 36.2141 45.781 34.6951V32.3985C45.781 31.6213 46.4111 30.9912 47.1882 30.9912C48.1503 30.9912 48.933 30.2084 48.933 29.2464C48.933 28.2845 48.1501 27.5016 47.1882 27.5016C46.4111 27.5016 45.781 26.8716 45.781 26.0944V23.8989H23.2654V26.0944C23.2654 26.8716 22.6352 27.5016 21.8582 27.5016C20.8961 27.5016 20.1134 28.2845 20.1134 29.2464C20.1134 30.2084 20.8961 30.9912 21.8582 30.9912C22.6352 30.9912 23.2654 31.6213 23.2654 32.3985V34.6949C23.3932 36.183 24.1332 37.5468 25.2075 38.2741L32.7627 42.6064C32.7883 42.6213 32.8135 42.6366 32.8382 42.6531C33.8933 43.3498 35.1527 43.3498 36.2077 42.6531C36.233 42.6365 36.2586 42.6206 36.2848 42.6056L43.8623 38.2737ZM30.2553 45.0776C31.2647 46.4132 32.825 47.1996 34.5162 47.1996C36.2157 47.1996 37.7814 46.407 38.7903 45.0608C38.7899 45.0379 38.7877 45.0154 38.7877 44.9922V44.4165L37.7183 45.0278C36.7305 45.6692 35.6268 45.99 34.5228 45.99C33.4185 45.99 32.3144 45.669 31.3264 45.0272L30.2581 44.4147V44.9922C30.2584 45.0209 30.2558 45.0491 30.2553 45.0776ZM49.3624 65.412H52.4V55.897C52.4 54.311 51.4139 52.7039 50.1064 52.159L49.3624 51.8491V65.412ZM46.5479 65.412V50.6762L43.9445 49.5915V57.2882C43.9445 58.0654 43.3143 58.6954 42.5373 58.6954H39.087C38.31 58.6954 37.6798 58.0654 37.6798 57.2882C37.6798 56.511 38.31 55.881 39.087 55.881H41.1301V48.4187L41.0497 48.3852C40.6991 48.239 40.3805 48.0427 40.0999 47.8078C38.6071 49.2137 36.629 50.014 34.5163 50.014C32.4082 50.014 30.4321 49.2157 28.9396 47.814C28.6605 48.0465 28.3442 48.2404 27.9963 48.3853L27.9023 48.4244V55.8808H29.9453C30.7224 55.8808 31.3525 56.5109 31.3525 57.2881C31.3525 58.0653 30.7224 58.6953 29.9453 58.6953H26.4951C25.718 58.6953 25.0878 58.0653 25.0878 57.2881V49.597L22.4844 50.6817V65.4116H46.5479V65.412ZM16.6461 65.412H19.67V51.8546L18.9397 52.159C17.6322 52.7037 16.6462 54.3108 16.6462 55.897V65.412H16.6461ZM9.12013 65.412H9.68304V48.2462H9.12013V65.412ZM4.54241 45.4318H14.261V40.6448H4.54241V45.4318Z" fill="#00b394"/>
<path d="M53.4029 40.1758L56.0179 36.8368L54.9093 33.392C54.7809 32.9928 54.8371 32.5571 55.0628 32.2036L56.942 29.2606L56.1099 26.7033C55.9847 26.3183 56.0312 25.8981 56.2378 25.55L57.8743 22.7916L57.2107 19.9948C57.1207 19.6158 57.1918 19.2165 57.4072 18.892L59.2106 16.1738L57.9078 13.5396C57.7387 13.1976 57.7158 12.8015 57.8441 12.4422L59.1021 8.9219L58.5747 5.7161C58.5062 5.29927 58.6284 4.87368 58.9077 4.55698L60.4793 2.7747C60.7464 2.47175 61.131 2.29803 61.5349 2.29803H67.5743C68.3514 2.29803 68.9815 2.92806 68.9815 3.70526V46.8131C68.9815 47.5903 68.3514 48.2204 67.5743 48.2204H54.5108C53.7337 48.2204 53.1036 47.5903 53.1036 46.8131V41.0436C53.1036 40.729 53.209 40.4235 53.4029 40.1758ZM66.1671 5.11248H62.1702L61.4603 5.91784L61.9383 8.82433C61.977 9.0599 61.9551 9.30153 61.8749 9.52646L60.6952 12.8274L62.0926 15.6528C62.3149 16.1025 62.2811 16.6366 62.0038 17.0546L60.0897 19.9394L60.7436 22.6956C60.8278 23.0507 60.7709 23.4246 60.5847 23.7386L58.983 26.4383L59.8238 29.0225C59.954 29.4228 59.8981 29.8603 59.6717 30.2151L57.7911 33.1604L58.4733 35.2802H66.1671V5.11248ZM55.918 45.4059H66.1671V38.0942H58.6082L55.918 41.5291V45.4059Z" fill="#00b394"/>
<path d="M60.6201 40.7659H63.8568C64.6339 40.7659 65.264 41.396 65.264 42.1732C65.264 42.9503 64.6339 43.5804 63.8568 43.5804H60.6201C59.8431 43.5804 59.2129 42.9503 59.2129 42.1732C59.2129 41.396 59.8431 40.7659 60.6201 40.7659Z" fill="#00b394"/>
<path d="M36.3311 9.60638C36.48 8.84347 37.2194 8.34511 37.9814 8.49429C39.7317 8.83525 41.3429 9.63131 42.6411 10.7962C44.3735 12.3509 45.4124 14.4396 45.5671 16.6777C45.6206 17.4531 45.0354 18.125 44.26 18.1784C44.2271 18.1807 44.1942 18.1818 44.1617 18.1818C43.4286 18.1818 42.8106 17.6139 42.759 16.8715C42.6552 15.3677 41.9457 13.954 40.7608 12.8907C39.8414 12.0656 38.6942 11.5004 37.443 11.2567C36.6804 11.1082 36.1823 10.3691 36.3311 9.60638Z" fill="#00b394"/>
</g>
<defs>
<clipPath id="clip0">
<rect width="69" height="69" fill="white" transform="matrix(-1 0 0 1 69 0)"/>
</clipPath>
</defs>
</svg>
