<svg width="18" height="18" viewBox="0 0 18 18" fill="none" xmlns="http://www.w3.org/2000/svg">
<rect width="18" height="18" rx="4" fill="#FF8149" fill-opacity="0.3"/>
<path d="M13.3507 10.3186C13.2092 10.3186 13.0946 10.4332 13.0946 10.5747V12.8492C13.0941 13.2735 12.7503 13.6173 12.3261 13.6177H5.13826C4.71398 13.6173 4.37026 13.2735 4.36976 12.8492V6.17375C4.37026 5.74957 4.71398 5.40575 5.13826 5.40525H7.41275C7.55424 5.40525 7.66892 5.29057 7.66892 5.14908C7.66892 5.00769 7.55424 4.89291 7.41275 4.89291H5.13826C4.4312 4.89371 3.85822 5.46669 3.85742 6.17375V12.8493C3.85822 13.5564 4.4312 14.1294 5.13826 14.1302H12.3261C13.0331 14.1294 13.6061 13.5564 13.6069 12.8493V10.5747C13.6069 10.4332 13.4922 10.3186 13.3507 10.3186Z" fill="black" stroke="black" stroke-width="0.3"/>
<path d="M13.5054 4.23378C13.0553 3.78358 12.3254 3.78358 11.8752 4.23378L7.30499 8.80397C7.27367 8.83529 7.25106 8.87411 7.23925 8.91674L6.63825 11.0865C6.61354 11.1754 6.63865 11.2707 6.7039 11.336C6.76924 11.4013 6.8645 11.4264 6.95346 11.4018L9.12318 10.8007C9.16581 10.7889 9.20463 10.7663 9.23595 10.7349L13.806 6.16464C14.2555 5.71415 14.2555 4.98487 13.806 4.53438L13.5054 4.23378ZM7.86316 8.97048L11.6035 5.23003L12.8098 6.43632L9.06935 10.1768L7.86316 8.97048ZM7.6222 9.45399L8.58593 10.4178L7.25286 10.7872L7.6222 9.45399ZM13.4438 5.80241L13.1721 6.07408L11.9657 4.86769L12.2375 4.59602C12.4876 4.34595 12.893 4.34595 13.1431 4.59602L13.4438 4.89661C13.6935 5.14698 13.6935 5.55214 13.4438 5.80241Z" fill="black" stroke="black" stroke-width="0.3"/>
</svg>
