<svg width="91" height="91" viewBox="0 0 91 91" fill="none" xmlns="http://www.w3.org/2000/svg">
<g clip-path="url(#clip0)">
<path d="M21.3281 45.5H18.4844V48.3438H21.3281V45.5Z" fill="#FF8149"/>
<path d="M72.5156 9.95312H69.6719V12.7969H72.5156V9.95312Z" fill="#FF8149"/>
<path d="M12.0859 58.2969C11.1017 58.2969 10.1395 58.5887 9.32109 59.1356C8.5027 59.6824 7.86484 60.4596 7.48818 61.369C7.11152 62.2783 7.01296 63.279 7.20499 64.2443C7.39701 65.2097 7.87098 66.0964 8.56696 66.7924C9.26295 67.4884 10.1497 67.9624 11.115 68.1544C12.0804 68.3464 13.081 68.2478 13.9904 67.8712C14.8997 67.4945 15.6769 66.8567 16.2238 66.0383C16.7706 65.2199 17.0625 64.2577 17.0625 63.2734C17.061 61.954 16.5362 60.6891 15.6033 59.7561C14.6703 58.8231 13.4053 58.2983 12.0859 58.2969ZM12.0859 65.4062C11.6641 65.4062 11.2517 65.2812 10.901 65.0468C10.5503 64.8124 10.2769 64.4793 10.1155 64.0896C9.95403 63.6999 9.9118 63.2711 9.99409 62.8573C10.0764 62.4436 10.2795 62.0636 10.5778 61.7653C10.8761 61.467 11.2561 61.2639 11.6698 61.1816C12.0836 61.0993 12.5124 61.1415 12.9021 61.303C13.2918 61.4644 13.6249 61.7378 13.8593 62.0885C14.0936 62.4392 14.2187 62.8516 14.2187 63.2734C14.2181 63.8389 13.9932 64.381 13.5934 64.7809C13.1935 65.1807 12.6514 65.4056 12.0859 65.4062Z" fill="#FF8149"/>
<path d="M17.78 7.81371L15.4662 3.58363C15.3438 3.35974 15.1634 3.17293 14.9439 3.04279C14.7244 2.91265 14.4739 2.84398 14.2187 2.84398C13.9635 2.84398 13.7131 2.91265 13.4936 3.04279C13.2741 3.17293 13.0936 3.35974 12.9712 3.58363L10.6575 7.81371L6.42739 10.1276C6.20354 10.2501 6.01677 10.4305 5.88666 10.65C5.75655 10.8695 5.6879 11.1199 5.6879 11.3751C5.6879 11.6302 5.75655 11.8807 5.88666 12.1001C6.01677 12.3196 6.20354 12.5 6.42739 12.6225L10.6575 14.9364L12.9712 19.1665C13.0936 19.3904 13.2741 19.5772 13.4936 19.7073C13.7131 19.8375 13.9635 19.9061 14.2187 19.9061C14.4739 19.9061 14.7244 19.8375 14.9439 19.7073C15.1634 19.5772 15.3438 19.3904 15.4662 19.1665L17.78 14.9364L22.0101 12.6225C22.2339 12.5 22.4207 12.3196 22.5508 12.1001C22.6809 11.8807 22.7496 11.6302 22.7496 11.3751C22.7496 11.1199 22.6809 10.8695 22.5508 10.65C22.4207 10.4305 22.2339 10.2501 22.0101 10.1276L17.78 7.81371ZM16.0494 12.6412C15.8109 12.7717 15.6147 12.9678 15.4842 13.2063L14.2187 15.5212L12.9527 13.2056C12.8222 12.9671 12.6261 12.771 12.3875 12.6404L10.0725 11.375L12.3881 10.1088C12.6266 9.97827 12.8227 9.78213 12.9533 9.5436L14.2187 7.22879L15.4847 9.54431C15.6153 9.78284 15.8114 9.97898 16.0499 10.1095L18.3649 11.375L16.0494 12.6412Z" fill="#FF8149"/>
<path d="M77.4636 48.5181L73.2335 46.2041L70.9197 41.9741C70.7973 41.7502 70.6169 41.5634 70.3974 41.4332C70.1779 41.3031 69.9274 41.2344 69.6722 41.2344C69.4171 41.2344 69.1666 41.3031 68.9471 41.4332C68.7276 41.5634 68.5471 41.7502 68.4247 41.9741L66.111 46.2041L61.8809 48.5181C61.657 48.6405 61.4703 48.8209 61.3402 49.0404C61.2101 49.2599 61.1414 49.5103 61.1414 49.7655C61.1414 50.0206 61.2101 50.2711 61.3402 50.4906C61.4703 50.71 61.657 50.8905 61.8809 51.0129L66.111 53.3268L68.4247 57.5569C68.5471 57.7808 68.7276 57.9676 68.9471 58.0978C69.1666 58.2279 69.4171 58.2966 69.6722 58.2966C69.9274 58.2966 70.1779 58.2279 70.3974 58.0978C70.6169 57.9676 70.7973 57.7808 70.9197 57.5569L73.2335 53.3268L77.4636 51.0129C77.6874 50.8905 77.8742 50.71 78.0043 50.4906C78.1344 50.2711 78.2031 50.0206 78.2031 49.7655C78.2031 49.5103 78.1344 49.2599 78.0043 49.0404C77.8742 48.8209 77.6874 48.6405 77.4636 48.5181ZM71.5025 51.0318C71.264 51.1623 71.0679 51.3584 70.9373 51.597L69.6719 53.9118L68.4059 51.5962C68.2753 51.3577 68.0792 51.1616 67.8407 51.0311L65.5257 49.7656L67.8407 48.4994C68.0792 48.3689 68.2753 48.1727 68.4059 47.9342L69.6719 45.6194L70.9379 47.9342C71.0684 48.1727 71.2645 48.3689 71.5031 48.4994L73.8181 49.7656L71.5025 51.0318Z" fill="#FF8149"/>
<path d="M90.3096 34.3276L71.092 22.7971C69.4899 21.836 67.6567 21.3283 65.7884 21.3281H61.1405C61.138 19.0663 60.2383 16.8978 58.639 15.2984C57.0396 13.6991 54.8711 12.7994 52.6093 12.7969H46.9218V0H44.078V12.7969H38.3905C36.1287 12.7994 33.9602 13.6991 32.3608 15.2984C30.7614 16.8978 29.8618 19.0663 29.8593 21.3281H25.2113C23.343 21.3283 21.5098 21.836 19.9076 22.7971L0.690206 34.3276C0.423558 34.4876 0.216708 34.7306 0.10134 35.0194C-0.0140269 35.3081 -0.0315497 35.6267 0.0514563 35.9264C0.134462 36.2261 0.31342 36.4903 0.560916 36.6786C0.808413 36.8668 1.1108 36.9688 1.42176 36.9688H89.578C89.889 36.9688 90.1914 36.8668 90.4389 36.6786C90.6863 36.4903 90.8653 36.2261 90.9483 35.9264C91.0313 35.6267 91.0138 35.3081 90.8984 35.0194C90.7831 34.7306 90.5762 34.4876 90.3096 34.3276ZM38.3905 15.6406H52.6093C54.1172 15.6423 55.5628 16.2421 56.6291 17.3083C57.6953 18.3746 58.2951 19.8202 58.2968 21.3281H32.703C32.7047 19.8202 33.3045 18.3746 34.3707 17.3083C35.437 16.2421 36.8826 15.6423 38.3905 15.6406ZM6.55508 34.125L21.3707 25.2356C22.5308 24.5395 23.8584 24.1719 25.2113 24.1719H65.7881C67.141 24.1719 68.4684 24.5396 69.6286 25.2356L84.4447 34.125H6.55508Z" fill="#FF8149"/>
<path d="M66.3612 74.2397L62.4948 71.2137C62.5537 70.702 62.5763 70.1868 62.5625 69.6719C62.5674 67.3222 62.0406 65.0019 61.0214 62.8847C60.0023 60.7676 58.5172 58.9085 56.6775 57.4468C56.5545 57.3463 56.4502 57.2249 56.3693 57.0881C54.0711 53.2924 54.0312 48.391 54.0312 48.3438V39.8125C54.0312 39.4354 53.8814 39.0737 53.6148 38.8071C53.3481 38.5404 52.9865 38.3906 52.6094 38.3906H41.2344C40.8573 38.3906 40.4956 38.5404 40.2289 38.8071C39.9623 39.0737 39.8125 39.4354 39.8125 39.8125V48.3418C39.7412 50.5612 39.3172 52.7551 38.5564 54.8412L35.2177 53.5057C34.2454 53.1168 33.1604 53.1189 32.1895 53.5113C31.2186 53.9038 30.437 54.6563 30.008 55.6116C29.5791 56.5669 29.5359 57.6511 29.8876 58.6374C30.2393 59.6238 30.9587 60.4361 31.8953 60.9044L33.4651 61.6895C32.7285 62.9285 32.1684 64.2642 31.8008 65.6579C30.8576 65.1866 29.7753 65.0741 28.7553 65.3413C27.7354 65.6085 26.8473 66.2373 26.2564 67.1106C25.6655 67.9838 25.4121 69.042 25.5433 70.0882C25.6745 71.1344 26.1815 72.0973 26.9698 72.7975L33.0513 78.2031H30.5703C29.6275 78.2031 28.7234 78.5776 28.0568 79.2443C27.3901 79.9109 27.0156 80.8151 27.0156 81.7578C27.0156 82.7006 27.3901 83.6047 28.0568 84.2714C28.7234 84.938 29.6275 85.3125 30.5703 85.3125H35.255L44.0781 89.0938V91H46.9219V88.1562C46.9219 87.8779 46.8402 87.6058 46.687 87.3734C46.5338 87.1411 46.3158 86.9588 46.06 86.8492L36.1069 82.5836C35.9299 82.5078 35.7394 82.4687 35.5469 82.4688H30.5703C30.3818 82.4688 30.2009 82.3938 30.0676 82.2605C29.9343 82.1272 29.8594 81.9464 29.8594 81.7578C29.8594 81.5693 29.9343 81.3884 30.0676 81.2551C30.2009 81.1218 30.3818 81.0469 30.5703 81.0469H36.1986C39.0955 83.7886 42.9333 85.3153 46.9219 85.3125C49.201 85.3125 51.1342 84.9691 52.8911 84.2326C52.7027 85.532 52.6085 86.8433 52.6094 88.1562H55.4531C55.4412 85.5121 55.8808 82.8854 56.7531 80.3893C57.0872 79.4061 57.5246 78.4611 58.058 77.5702C58.2526 77.2783 58.3324 76.9247 58.282 76.5774C58.2317 76.2302 58.0547 75.9139 57.7852 75.6892L49.2539 68.5799C49.215 68.5475 49.1745 68.5171 49.1324 68.4891C47.1188 67.1466 46.6974 64.4545 46.6938 62.4589L64.0629 76.0525V91H66.9067V75.3594C66.9067 75.1436 66.8576 74.9306 66.7631 74.7366C66.6686 74.5426 66.5311 74.3727 66.3612 74.2397ZM42.6562 45.5H51.1875V46.9219H42.6562V45.5ZM51.1875 41.2344V42.6562H42.6562V41.2344H51.1875ZM33.1668 58.3609C33.0127 58.2838 32.8768 58.1749 32.768 58.0413C32.6592 57.9077 32.5801 57.7525 32.5359 57.586C32.4917 57.4195 32.4834 57.2455 32.5115 57.0756C32.5397 56.9056 32.6037 56.7436 32.6992 56.6002C32.8546 56.3691 33.0844 56.1981 33.3504 56.1154C33.6164 56.0328 33.9026 56.0436 34.1616 56.1459L37.2428 57.3785C37.2147 57.4055 37.1859 57.4318 37.1561 57.4551C36.4373 58.0304 35.7701 58.6673 35.1621 59.3585L33.1668 58.3609ZM28.3541 69.5907C28.3453 69.2892 28.4272 68.9921 28.5892 68.7377C28.7512 68.4834 28.9859 68.2836 29.2628 68.1641C29.5397 68.0446 29.846 68.0111 30.1422 68.0677C30.4384 68.1244 30.7108 68.2687 30.924 68.4819L31.3027 68.8607C31.2891 69.13 31.2812 69.4003 31.2812 69.6719C31.2807 70.8515 31.4136 72.0274 31.6776 73.1772L28.8589 70.6711C28.705 70.5354 28.5808 70.3694 28.4939 70.1835C28.4071 69.9976 28.3596 69.7958 28.3543 69.5907H28.3541ZM47.4887 70.8103L55.058 77.1179C54.5093 78.2223 54.0566 79.3717 53.7047 80.5537C51.758 81.9092 49.756 82.4688 46.9219 82.4688C44.2696 82.4687 41.683 81.6445 39.5195 80.1103C37.3561 78.576 35.7229 76.4075 34.8456 73.9045C33.9684 71.4016 33.8905 68.6879 34.6227 66.1388C35.355 63.5896 36.8612 61.331 38.9331 59.6752C39.3238 59.361 39.6559 58.98 39.9138 58.55C41.8236 55.3897 42.4035 51.7328 42.5798 49.7656H51.2643C51.4406 51.7349 52.0218 55.3982 53.9369 58.561C54.191 58.9843 54.518 59.3592 54.9029 59.6685C56.323 60.7969 57.4859 62.2156 58.3134 63.8297C59.141 65.4439 59.6143 67.2161 59.7017 69.0279L46.3764 58.599C46.1853 58.4494 45.959 58.3513 45.7192 58.3139C45.4794 58.2765 45.234 58.3011 45.0064 58.3853C44.7788 58.4696 44.5765 58.6107 44.4189 58.7953C44.2612 58.9799 44.1535 59.2017 44.1058 59.4397C44.0404 59.7669 42.5674 67.4525 47.4887 70.8103Z" fill="#FF8149"/>
<path d="M39.8125 69.6614L38.3906 69.6718H36.9688C36.9688 69.877 37.0244 74.7355 41.8676 77.9642L43.445 75.5982C39.9065 73.2392 39.8146 69.8064 39.8125 69.6614Z" fill="#FF8149"/>
</g>
<defs>
<clipPath id="clip0">
<rect width="91" height="91" fill="white"/>
</clipPath>
</defs>
</svg>
