<svg width="95" height="95" viewBox="0 0 95 95" fill="none" xmlns="http://www.w3.org/2000/svg">
<path d="M37.1094 25.2344C37.9292 25.2344 38.5938 24.5698 38.5938 23.75C38.5938 22.9302 37.9292 22.2656 37.1094 22.2656C36.2896 22.2656 35.625 22.9302 35.625 23.75C35.625 24.5698 36.2896 25.2344 37.1094 25.2344Z" fill="#FF8149"/>
<path d="M28.2031 25.2344C29.0229 25.2344 29.6875 24.5698 29.6875 23.75C29.6875 22.9302 29.0229 22.2656 28.2031 22.2656C27.3833 22.2656 26.7188 22.9302 26.7188 23.75C26.7188 24.5698 27.3833 25.2344 28.2031 25.2344Z" fill="#FF8149"/>
<path d="M32.6562 34.1406C35.9308 34.1406 38.5938 31.4777 38.5938 28.2031H35.625C35.625 29.8404 34.2935 31.1719 32.6562 31.1719C31.019 31.1719 29.6875 29.8404 29.6875 28.2031H26.7188C26.7188 31.4777 29.3817 34.1406 32.6562 34.1406Z" fill="#FF8149"/>
<path d="M88.6291 46.8068L74.1312 36.7709C74.1891 36.3761 74.2187 35.9961 74.2187 35.625C74.2187 30.7132 70.2243 26.7188 65.3125 26.7188C63.457 26.7188 61.6684 27.2991 60.138 28.3976C59.7446 28.6781 59.5145 29.1338 59.519 29.6162C59.5234 30.0987 59.7609 30.5484 60.1587 30.823L63.1884 32.9205C63.8608 33.3866 64.03 34.3128 63.5654 34.9852C63.1141 35.6354 62.1523 35.8135 61.4991 35.3623L58.8258 33.5112C58.3983 33.2159 57.8476 33.1639 57.3726 33.3777C56.8991 33.5899 56.5695 34.0352 56.5072 34.5503L56.4805 34.7463C56.4404 35.0357 56.4062 35.3252 56.4062 35.625C56.4062 40.5368 60.4007 44.5312 65.3125 44.5312C66.4659 44.5312 67.5984 44.2982 68.688 43.8366L69.4198 44.3427L63.4615 52.8541L53.4583 45.8509C50.8977 44.0592 47.9097 42.8777 44.8148 42.4338L39.7916 41.7184L38.9322 38.285C40.5041 37.2727 41.803 35.867 42.7515 34.1391H44.5312C47.8058 34.1391 50.4687 31.4762 50.4687 28.2016V19.2954H51.9531C54.4083 19.2954 56.4062 17.2974 56.4062 14.8423C56.4062 12.3871 54.4083 10.3891 51.9531 10.3891H49.2337C46.8899 5.02313 41.5477 1.48438 35.625 1.48438H29.6875C21.5027 1.48438 14.8437 8.14328 14.8437 16.3281V17.8125V19.2969V28.2031C14.8437 31.4777 17.5067 34.1406 20.7812 34.1406H22.5595C23.5066 35.867 24.8054 37.2741 26.3788 38.2865L25.5194 41.7198L19.2716 42.612C16.9902 42.94 14.771 43.7861 12.8532 45.0641C8.52328 47.9498 5.9375 52.7814 5.9375 57.9856V71.25C5.9375 75.3424 9.26695 78.6719 13.3594 78.6719H14.8437V93.5156H50.4687V61.6595L60.1751 65.9716C61.4012 66.5193 62.7074 66.7969 64.0552 66.7969C67.1873 66.7969 70.1234 65.2591 71.9061 62.6837L79.6842 51.4499L83.5584 54.1322C84.3095 54.6473 85.1853 54.9219 86.0923 54.9219C87.5514 54.9219 88.9215 54.2064 89.7557 53.0041C91.1525 50.9868 90.6478 48.2066 88.6291 46.8068ZM30.397 47.6603L26.7187 51.3386V44.9023L30.397 47.6603ZM32.6562 49.5989L36.4948 53.4375H28.8177L32.6562 49.5989ZM38.5937 44.9023V51.3386L34.9155 47.6603L38.5937 44.9023ZM44.5312 31.1719H43.9449C44.3219 29.8003 44.5312 28.3115 44.5312 26.7188V25.2344C46.1685 25.2344 47.5 26.5659 47.5 28.2031C47.5 29.8404 46.1685 31.1719 44.5312 31.1719ZM47.5 23.0909C46.6227 22.5803 45.6178 22.2656 44.5312 22.2656V19.2969H47.5V23.0909ZM51.9531 13.3594C52.7725 13.3594 53.4375 14.0244 53.4375 14.8438C53.4375 15.6631 52.7725 16.3281 51.9531 16.3281H32.9101C33.5231 14.6003 35.1737 13.3594 37.1094 13.3594H51.9531ZM29.6875 4.45312H35.625C39.9134 4.45312 43.8187 6.77023 45.9132 10.3906H37.1094C33.5246 10.3906 30.5262 12.9452 29.8374 16.3281H17.8125C17.8125 9.78055 23.1399 4.45312 29.6875 4.45312ZM20.7812 19.2969V22.2656C19.6947 22.2656 18.6898 22.5803 17.8125 23.0909V19.2969H20.7812ZM20.7812 31.1719C19.144 31.1719 17.8125 29.8404 17.8125 28.2031C17.8125 26.5659 19.144 25.2344 20.7812 25.2344V26.7188C20.7812 28.3115 20.9905 29.8003 21.3676 31.1719H20.7812ZM23.75 26.7188V19.2969H41.5625V26.7188C41.5625 33.0303 38.0668 37.1094 32.6562 37.1094C27.2457 37.1094 23.75 33.0303 23.75 26.7188ZM32.6562 40.0781C33.9091 40.0781 35.0906 39.8955 36.1935 39.5601L36.9149 42.4516L32.6562 45.6445L28.3976 42.4516L29.119 39.5601C30.2219 39.8955 31.4034 40.0781 32.6562 40.0781ZM19.6932 45.551L23.75 44.9706V56.4062H41.5625V44.9706L44.3947 45.3759C45.453 45.5273 46.4877 45.8063 47.5 46.1537V81.6406H44.5312V59.375H20.7812V66.7969H17.8125V45.9889C18.43 45.8004 19.0549 45.6416 19.6932 45.551ZM23.75 84.6094V78.6719H29.6875C32.962 78.6719 35.625 76.0089 35.625 72.7344C35.625 69.4598 32.962 66.7969 29.6875 66.7969H23.75V62.3438H41.5625V84.6094H23.75ZM29.6875 69.7656C31.3248 69.7656 32.6562 71.0971 32.6562 72.7344C32.6562 74.3716 31.3248 75.7031 29.6875 75.7031H26.7187V69.7656H29.6875ZM8.90625 71.25V57.9856C8.90625 53.7745 10.9977 49.8676 14.5009 47.5327C14.6107 47.4584 14.7309 47.4005 14.8437 47.3308V66.7969V68.2812V69.7656H23.75V75.7031H13.3594C10.9042 75.7031 8.90625 73.7052 8.90625 71.25ZM20.7812 78.6719V81.6406H17.8125V78.6719H20.7812ZM17.8125 84.6094H20.7812V87.5781H31.1719V90.5469H17.8125V84.6094ZM34.1406 90.5469V87.5781H44.5312V84.6094H47.5V90.5469H34.1406ZM69.4658 60.993C68.2367 62.7683 66.2135 63.8281 64.0552 63.8281C63.126 63.8281 62.228 63.6366 61.3819 63.2596L50.4687 58.4102V47.4911C50.9066 47.742 51.3445 47.9943 51.7572 48.2837L64.1933 56.9881L68.4401 50.9215L73.7898 54.7467L69.4658 60.993ZM75.479 52.3064L70.1412 48.4901L71.8601 46.0334L77.2424 49.7592L75.479 52.3064ZM87.3154 51.3119C86.8641 51.962 85.9023 52.1402 85.2491 51.6889L69.6691 40.9034C69.4153 40.7283 69.1199 40.6392 68.8245 40.6392C68.5811 40.6392 68.3377 40.6986 68.115 40.8188C67.2095 41.3131 66.2669 41.5625 65.3125 41.5625C62.8009 41.5625 60.6471 39.9935 59.7802 37.7848L59.8084 37.8041C61.7634 39.1534 64.6534 38.6279 66.0042 36.6774C67.401 34.6602 66.8978 31.8799 64.8776 30.4802L63.9617 29.8463C64.4026 29.7409 64.8538 29.6875 65.3125 29.6875C68.587 29.6875 71.25 32.3505 71.25 35.625C71.25 36.0644 71.1847 36.523 71.0452 37.0723C70.8923 37.6734 71.1312 38.3058 71.6389 38.6576L86.9384 49.2486C87.2634 49.4727 87.4816 49.8127 87.5529 50.2045C87.6241 50.5964 87.5395 50.9898 87.3154 51.3119Z" fill="#FF8149"/>
</svg>
