<svg width="81" height="81" viewBox="0 0 81 81" fill="none" xmlns="http://www.w3.org/2000/svg">
<path d="M24.0469 44.1469C15.5894 44.1469 8.70937 51.0269 8.70937 59.4844C8.70937 67.9419 15.5894 74.8219 24.0469 74.8219C32.5044 74.8219 39.3844 67.9419 39.3844 59.4844C39.3844 51.0269 32.5044 44.1469 24.0469 44.1469ZM24.0469 71.9906C17.1511 71.9906 11.5406 66.3802 11.5406 59.4844C11.5406 52.5886 17.1511 46.9781 24.0469 46.9781C30.9427 46.9781 36.5531 52.5886 36.5531 59.4844C36.5531 66.3802 30.9427 71.9906 24.0469 71.9906Z" fill="#A3A3A3" stroke="#A3A3A3" stroke-width="0.3"/>
<path d="M7.59375 36.8531H25.3125C26.094 36.8531 26.7281 36.219 26.7281 35.4375V30.375C26.7281 29.5935 26.094 28.9594 25.3125 28.9594H7.59375C6.81228 28.9594 6.17812 29.5935 6.17812 30.375V35.4375C6.17812 36.219 6.81228 36.8531 7.59375 36.8531ZM9.00938 31.7906H23.8969V34.0219H9.00938V31.7906Z" fill="#A3A3A3" stroke="#A3A3A3" stroke-width="0.3"/>
<path d="M30.375 28.9594H30.225V29.1094V31.6406V31.7906H30.375H41.7656H41.9156V31.6406V29.1094V28.9594H41.7656H30.375Z" fill="#A3A3A3" stroke="#A3A3A3" stroke-width="0.3"/>
<path d="M30.375 34.0219H30.225V34.1719V36.7031V36.8531H30.375H41.7656H41.9156V36.7031V34.1719V34.0219H41.7656H30.375Z" fill="#A3A3A3" stroke="#A3A3A3" stroke-width="0.3"/>
<path d="M24.0469 49.2094C18.3814 49.2094 13.7719 53.8189 13.7719 59.4844C13.7719 65.1499 18.3814 69.7594 24.0469 69.7594C29.7124 69.7594 34.3219 65.1499 34.3219 59.4844C34.3219 53.8189 29.7124 49.2094 24.0469 49.2094ZM24.0469 52.0406C27.4004 52.0406 30.2367 54.2737 31.1629 57.3291C29.4875 56.493 27.3132 56.7463 25.9481 58.1127C25.9481 58.1127 25.9481 58.1127 25.948 58.1127L25.2064 58.8543C24.5993 59.4615 23.4945 59.4615 22.8873 58.8543L22.1457 58.1127C20.7805 56.7463 18.6061 56.4942 16.9308 57.3294C17.8569 54.2738 20.6933 52.0406 24.0469 52.0406ZM24.0469 66.9281C20.5139 66.9281 17.5514 64.4522 16.7934 61.1458L17.8248 60.1144C18.432 59.5073 19.5368 59.5073 20.1439 60.1144L20.8856 60.8561C21.73 61.7005 22.8528 62.1656 24.0469 62.1656C25.2408 62.1656 26.365 61.7006 27.2082 60.856L27.9498 60.1144C28.557 59.5073 29.6618 59.5073 30.2689 60.1144L31.3003 61.1458C30.5424 64.4522 27.5799 66.9281 24.0469 66.9281Z" fill="#A3A3A3" stroke="#A3A3A3" stroke-width="0.3"/>
<path d="M29.1094 13.7719H28.9594V13.9219V16.4531V16.6031H29.1094H31.6406H31.7906V16.4531V13.9219V13.7719H31.6406H29.1094Z" fill="#A3A3A3" stroke="#A3A3A3" stroke-width="0.3"/>
<path d="M29.1094 18.8344H28.9594V18.9844V21.5156V21.6656H29.1094H31.6406H31.7906V21.5156V18.9844V18.8344H31.6406H29.1094Z" fill="#A3A3A3" stroke="#A3A3A3" stroke-width="0.3"/>
<path d="M7.85548 19.2484L7.74942 19.3544L7.85548 19.4605L9.64535 21.2504L9.75141 21.3564L9.85748 21.2504L14.9201 16.1877L15.0262 16.0817L14.9201 15.9756L13.1302 14.1857L13.0242 14.0797L12.9181 14.1857L7.85548 19.2484Z" fill="#A3A3A3" stroke="#A3A3A3" stroke-width="0.3"/>
<path d="M15.4492 19.2484L15.3432 19.3544L15.4492 19.4605L17.2391 21.2504L17.3452 21.3564L17.4512 21.2504L22.5139 16.1877L22.6199 16.0817L22.5139 15.9756L20.724 14.1857L20.6179 14.0797L20.5119 14.1857L15.4492 19.2484Z" fill="#A3A3A3" stroke="#A3A3A3" stroke-width="0.3"/>
<path d="M78.4688 1.11562H40.5C39.7185 1.11562 39.0844 1.74978 39.0844 2.53125V23.8969H36.8531V10.125C36.8531 9.34353 36.219 8.70937 35.4375 8.70937H5.0625C4.28103 8.70937 3.64687 9.34353 3.64687 10.125V23.8969H2.53125C1.74978 23.8969 1.11562 24.531 1.11562 25.3125V78.4688C1.11562 79.2502 1.74978 79.8844 2.53125 79.8844H45.5625C46.344 79.8844 46.9781 79.2502 46.9781 78.4688V74.8219H69.4594V78.4688C69.4594 79.2502 70.0935 79.8844 70.875 79.8844H75.9375C76.719 79.8844 77.3531 79.2502 77.3531 78.4688V74.8219H78.4688C79.2502 74.8219 79.8844 74.1877 79.8844 73.4062V2.53125C79.8844 1.74978 79.2502 1.11562 78.4688 1.11562ZM77.0531 3.94688V6.17812H41.9156V3.94688H77.0531ZM41.9156 9.00938H77.0531V28.9594H46.9781V25.3125C46.9781 24.531 46.344 23.8969 45.5625 23.8969H41.9156V9.00938ZM34.0219 23.8969H26.7281V11.5406H34.0219V23.8969ZM6.47813 11.5406H23.8969V23.8969H6.47813V11.5406ZM44.1469 26.7281V39.0844H3.94688V26.7281H44.1469ZM3.94688 77.0531V41.9156H44.1469V77.0531H3.94688ZM74.5219 77.0531H72.2906V74.8219H74.5219V77.0531ZM46.9781 71.9906V31.7906H77.0531V71.9906H46.9781Z" fill="#A3A3A3" stroke="#A3A3A3" stroke-width="0.3"/>
<path d="M73.4062 36.5531H68.3438C67.5623 36.5531 66.9281 37.1873 66.9281 37.9688V53.1562C66.9281 53.9377 67.5623 54.5719 68.3438 54.5719H73.4062C74.1877 54.5719 74.8219 53.9377 74.8219 53.1562V37.9688C74.8219 37.1873 74.1877 36.5531 73.4062 36.5531ZM71.9906 51.7406H69.7594V39.3844H71.9906V51.7406Z" fill="#A3A3A3" stroke="#A3A3A3" stroke-width="0.3"/>
</svg>
