<svg width="92" height="92" viewBox="0 0 92 92" fill="none" xmlns="http://www.w3.org/2000/svg">
<path d="M79.0625 43.2328V41.6875C79.0625 37.4938 77.3966 33.4718 74.4312 30.5064C71.4657 27.541 67.4438 25.875 63.25 25.875C59.0563 25.875 55.0343 27.541 52.0689 30.5064C49.1035 33.4718 47.4375 37.4938 47.4375 41.6875V47.4375H41.6875C41.3063 47.4375 40.9406 47.589 40.6711 47.8585C40.4015 48.1281 40.25 48.4938 40.25 48.875V54.625C40.25 55.0062 40.4015 55.3719 40.6711 55.6415C40.9406 55.911 41.3063 56.0625 41.6875 56.0625H41.8313L43.1926 69H37.375V7.1875C37.375 6.04375 36.9207 4.94685 36.1119 4.1381C35.3032 3.32935 34.2063 2.875 33.0625 2.875C31.9188 2.875 30.8219 3.32935 30.0131 4.1381C29.2044 4.94685 28.75 6.04375 28.75 7.1875V69H14.375C13.6128 69.0009 12.8821 69.3041 12.3431 69.8431C11.8041 70.382 11.5009 71.1128 11.5 71.875V76.0105L8.66797 87.3389C8.615 87.5508 8.61102 87.772 8.65634 87.9857C8.70166 88.1994 8.79508 88.4 8.92952 88.5722C9.06396 88.7443 9.23586 88.8836 9.43218 88.9794C9.62851 89.0752 9.84408 89.125 10.0625 89.125H77.625C78.0063 89.125 78.3719 88.9735 78.6415 88.704C78.9111 88.4344 79.0625 88.0687 79.0625 87.6875V82.013L81.0916 62.7375C81.7866 62.3563 82.3656 61.7945 82.7676 61.1113C83.1695 60.4281 83.3794 59.6489 83.375 58.8563V48.5156C83.3736 47.2734 82.9439 46.0696 82.1583 45.1073C81.3727 44.1449 80.2794 43.4829 79.0625 43.2328ZM50.3125 41.6875C50.3125 39.9885 50.6472 38.3062 51.2973 36.7365C51.9475 35.1669 52.9005 33.7407 54.1018 32.5393C55.3032 31.3379 56.7294 30.385 58.2991 29.7348C59.8687 29.0846 61.5511 28.75 63.25 28.75C64.949 28.75 66.6314 29.0846 68.201 29.7348C69.7707 30.385 71.1969 31.3379 72.3982 32.5393C73.5996 33.7407 74.5526 35.1669 75.2027 36.7365C75.8529 38.3062 76.1875 39.9885 76.1875 41.6875V43.125H62.8907C61.6484 43.1264 60.4446 43.5562 59.4823 44.3417C58.52 45.1273 57.8579 46.2207 57.6078 47.4375H50.3125V41.6875ZM43.125 50.3125H57.5V53.1875H43.125V50.3125ZM44.7217 56.0625H57.5V58.8584C57.5025 59.4452 57.6208 60.0256 57.8483 60.5664C58.0757 61.1073 58.4078 61.5979 58.8254 62.01C59.2258 62.4099 59.7023 62.7257 60.2267 62.9386C60.751 63.1515 61.3127 63.2574 61.8787 63.2498C62.9166 63.2313 63.9134 62.8407 64.6875 62.1491C65.4774 62.8578 66.5013 63.2499 67.5625 63.2499C68.6238 63.2499 69.6477 62.8578 70.4375 62.1491C71.2272 62.8576 72.2506 63.2495 73.3115 63.2498C74.3724 63.2501 75.3961 62.8586 76.1861 62.1505C76.7437 62.6516 77.4234 62.9971 78.1569 63.1521L76.3313 80.5H55.7474L54.625 76.0105V71.875C54.6241 71.1128 54.3209 70.382 53.782 69.8431C53.243 69.3041 52.5122 69.0009 51.75 69H46.083L44.7217 56.0625ZM31.625 7.1875C31.625 6.80625 31.7765 6.44062 32.0461 6.17103C32.3156 5.90145 32.6813 5.75 33.0625 5.75C33.4438 5.75 33.8094 5.90145 34.079 6.17103C34.3486 6.44062 34.5 6.80625 34.5 7.1875V69H31.625V7.1875ZM14.375 71.875H51.75V74.75H14.375V71.875ZM17.6536 86.25L19.8099 77.625H22.5964L20.4402 86.25H17.6536ZM14.0599 77.625H16.8464L14.6902 86.25H11.9036L14.0599 77.625ZM25.5599 77.625H28.5592L27.4811 86.25H23.4036L25.5599 77.625ZM30.3784 86.25L31.4565 77.625H34.6686L35.7467 86.25H30.3784ZM38.644 86.25L37.5659 77.625H40.5652L42.7215 86.25H38.644ZM45.6849 86.25L43.5286 77.625H46.3152L48.4715 86.25H45.6849ZM51.4349 86.25L49.2786 77.625H52.0652L54.2215 86.25H51.4349ZM76.1875 86.25H57.1849L56.4661 83.375H76.1875V86.25ZM80.5 54.625V58.8563C80.5067 59.235 80.3695 59.6022 80.116 59.8837C79.8626 60.1653 79.5118 60.3402 79.1344 60.3732C78.9398 60.3829 78.7453 60.353 78.5626 60.2853C78.38 60.2175 78.213 60.1133 78.0718 59.9791C77.9306 59.8448 77.8182 59.6832 77.7414 59.5042C77.6646 59.3251 77.625 59.1323 77.625 58.9375V53.1875H74.75V58.9375C74.75 59.3187 74.5986 59.6844 74.329 59.954C74.0594 60.2235 73.6938 60.375 73.3125 60.375C72.9313 60.375 72.5657 60.2235 72.2961 59.954C72.0265 59.6844 71.875 59.3187 71.875 58.9375V53.1875H69V58.9375C69 59.3187 68.8486 59.6844 68.579 59.954C68.3094 60.2235 67.9438 60.375 67.5625 60.375C67.1813 60.375 66.8156 60.2235 66.5461 59.954C66.2765 59.6844 66.125 59.3187 66.125 58.9375V53.1875H63.25V58.9375C63.2505 59.315 63.1022 59.6774 62.8374 59.9464C62.5727 60.2155 62.2126 60.3694 61.8352 60.375H61.8154C61.4493 60.3713 61.0997 60.2227 60.8429 59.9617C60.6963 59.8177 60.5795 59.6461 60.4993 59.4568C60.4192 59.2675 60.3772 59.0642 60.3758 58.8586V48.5156C60.3765 47.8487 60.6417 47.2092 61.1133 46.7376C61.585 46.266 62.2244 46.0007 62.8914 46H77.9851C78.6521 46.0007 79.2915 46.266 79.7632 46.7376C80.2348 47.2092 80.5 47.8487 80.5008 48.5156L80.5 54.625Z" fill="#00b394"/>
<path d="M73.3125 70.4375H70.4375V77.625H73.3125V70.4375Z" fill="#00b394"/>
<path d="M73.3125 64.6875H70.4375V67.5625H73.3125V64.6875Z" fill="#00b394"/>
<path d="M17.3239 49.3296C17.4193 49.6158 17.6024 49.8646 17.8471 50.041C18.0918 50.2174 18.3859 50.3123 18.6875 50.3123C18.9892 50.3123 19.2832 50.2174 19.5279 50.041C19.7727 49.8646 19.9557 49.6158 20.0512 49.3296C20.4295 48.2037 21.0634 47.1807 21.9033 46.3408C22.7432 45.501 23.7662 44.8671 24.8921 44.4888C25.1784 44.3935 25.4274 44.2104 25.6039 43.9656C25.7804 43.7209 25.8753 43.4268 25.8753 43.125C25.8753 42.8232 25.7804 42.5291 25.6039 42.2844C25.4274 42.0396 25.1784 41.8565 24.8921 41.7612C23.7662 41.3829 22.7432 40.749 21.9033 39.9091C21.0634 39.0693 20.4295 38.0463 20.0512 36.9204C19.9557 36.6342 19.7727 36.3853 19.5279 36.209C19.2832 36.0326 18.9892 35.9377 18.6875 35.9377C18.3859 35.9377 18.0918 36.0326 17.8471 36.209C17.6024 36.3853 17.4193 36.6342 17.3239 36.9204C16.9456 38.0463 16.3116 39.0693 15.4717 39.9091C14.6318 40.749 13.6088 41.3829 12.4829 41.7612C12.1966 41.8565 11.9476 42.0396 11.7711 42.2844C11.5947 42.5291 11.4997 42.8232 11.4997 43.125C11.4997 43.4268 11.5947 43.7209 11.7711 43.9656C11.9476 44.2104 12.1966 44.3935 12.4829 44.4888C13.6088 44.8671 14.6318 45.501 15.4717 46.3408C16.3116 47.1807 16.9456 48.2037 17.3239 49.3296ZM18.6875 40.5316C19.3953 41.5396 20.2727 42.4172 21.2808 43.125C20.2727 43.8328 19.3953 44.7103 18.6875 45.7184C17.9798 44.7103 17.1023 43.8328 16.0943 43.125C17.1023 42.4172 17.9798 41.5396 18.6875 40.5316Z" fill="#00b394"/>
<path d="M88.1421 24.5112C87.0162 24.1329 85.9932 23.499 85.1533 22.6591C84.3134 21.8193 83.6795 20.7963 83.3012 19.6704C83.2057 19.3842 83.0227 19.1353 82.7779 18.959C82.5332 18.7826 82.2392 18.6877 81.9375 18.6877C81.6359 18.6877 81.3418 18.7826 81.0971 18.959C80.8524 19.1353 80.6693 19.3842 80.5739 19.6704C80.1956 20.7963 79.5616 21.8193 78.7217 22.6591C77.8818 23.499 76.8588 24.1329 75.7329 24.5112C75.4466 24.6065 75.1976 24.7896 75.0211 25.0344C74.8447 25.2791 74.7497 25.5732 74.7497 25.875C74.7497 26.1768 74.8447 26.4709 75.0211 26.7156C75.1976 26.9604 75.4466 27.1435 75.7329 27.2388C76.8588 27.6171 77.8818 28.251 78.7217 29.0908C79.5616 29.9307 80.1956 30.9537 80.5739 32.0796C80.6693 32.3658 80.8524 32.6146 81.0971 32.791C81.3418 32.9674 81.6359 33.0623 81.9375 33.0623C82.2392 33.0623 82.5332 32.9674 82.7779 32.791C83.0227 32.6146 83.2057 32.3658 83.3012 32.0796C83.6795 30.9537 84.3134 29.9307 85.1533 29.0908C85.9932 28.251 87.0162 27.6171 88.1421 27.2388C88.4284 27.1435 88.6774 26.9604 88.8539 26.7156C89.0304 26.4709 89.1253 26.1768 89.1253 25.875C89.1253 25.5732 89.0304 25.2791 88.8539 25.0344C88.6774 24.7896 88.4284 24.6065 88.1421 24.5112ZM81.9375 28.4684C81.2298 27.4603 80.3523 26.5828 79.3443 25.875C80.3523 25.1672 81.2298 24.2896 81.9375 23.2816C82.6453 24.2896 83.5227 25.1672 84.5308 25.875C83.5227 26.5828 82.6453 27.4603 81.9375 28.4684Z" fill="#00b394"/>
<path d="M10.0625 67.5625C10.3642 67.5625 10.6582 67.4675 10.903 67.2911C11.1477 67.1147 11.3308 66.8658 11.4262 66.5796C11.8045 65.4537 12.4384 64.4307 13.2783 63.5908C14.1182 62.751 15.1412 62.1171 16.2671 61.7388C16.5534 61.6435 16.8024 61.4604 16.9789 61.2156C17.1554 60.9709 17.2503 60.6767 17.2503 60.375C17.2503 60.0732 17.1554 59.7791 16.9789 59.5343C16.8024 59.2896 16.5534 59.1065 16.2671 59.0112C15.1412 58.6329 14.1182 57.999 13.2783 57.1591C12.4384 56.3193 11.8045 55.2963 11.4262 54.1704C11.3307 53.8842 11.1477 53.6353 10.9029 53.459C10.6582 53.2826 10.3642 53.1877 10.0625 53.1877C9.76085 53.1877 9.46684 53.2826 9.2221 53.459C8.97736 53.6353 8.79431 53.8842 8.69887 54.1704C8.32057 55.2963 7.68662 56.3193 6.84673 57.1591C6.00684 57.999 4.98383 58.6329 3.85791 59.0112C3.57161 59.1065 3.32259 59.2896 3.14612 59.5343C2.96966 59.7791 2.87469 60.0732 2.87469 60.375C2.87469 60.6767 2.96966 60.9709 3.14612 61.2156C3.32259 61.4604 3.57161 61.6435 3.85791 61.7388C4.98383 62.1171 6.00684 62.751 6.84673 63.5908C7.68662 64.4307 8.32057 65.4537 8.69887 66.5796C8.79427 66.8658 8.97731 67.1147 9.22205 67.2911C9.46679 67.4675 9.76083 67.5625 10.0625 67.5625ZM10.0625 57.7816C10.7703 58.7896 11.6477 59.6672 12.6558 60.375C11.6477 61.0828 10.7703 61.9603 10.0625 62.9684C9.35475 61.9603 8.4773 61.0828 7.46926 60.375C8.4773 59.6672 9.35475 58.7896 10.0625 57.7816Z" fill="#00b394"/>
</svg>
