<svg width="17" height="17" viewBox="0 0 17 17" fill="none" xmlns="http://www.w3.org/2000/svg">
<path fill-rule="evenodd" clip-rule="evenodd" d="M8.50078 0.233398C6.25567 0.233398 5.97391 0.243215 5.09212 0.283343C4.21206 0.323644 3.61134 0.462973 3.08571 0.667403C2.542 0.87855 2.08078 1.161 1.62129 1.62066C1.16145 2.08016 0.879005 2.54137 0.66717 3.08491C0.462223 3.61071 0.322722 4.2116 0.28311 5.09132C0.243671 5.97311 0.233337 6.25504 0.233337 8.50015C0.233337 10.7453 0.243326 11.0262 0.283282 11.9079C0.323755 12.788 0.463084 13.3887 0.667342 13.9144C0.878661 14.4581 1.16111 14.9193 1.62077 15.3788C2.0801 15.8386 2.54131 16.1218 3.08468 16.3329C3.61065 16.5373 4.21154 16.6767 5.09143 16.717C5.97322 16.7571 6.25481 16.7669 8.49975 16.7669C10.745 16.7669 11.0259 16.7571 11.9077 16.717C12.7878 16.6767 13.3892 16.5373 13.9152 16.3329C14.4587 16.1218 14.9192 15.8386 15.3785 15.3788C15.8384 14.9193 16.1208 14.4581 16.3327 13.9145C16.5359 13.3887 16.6754 12.7878 16.7167 11.9081C16.7563 11.0263 16.7667 10.7453 16.7667 8.50015C16.7667 6.25504 16.7563 5.97328 16.7167 5.09149C16.6754 4.21143 16.5359 3.61071 16.3327 3.08508C16.1208 2.54137 15.8384 2.08016 15.3785 1.62066C14.9187 1.16082 14.4589 0.878377 13.9146 0.667403C13.3876 0.462973 12.7866 0.323644 11.9065 0.283343C11.0247 0.243215 10.744 0.233398 8.4982 0.233398H8.50078ZM7.75915 1.72311C7.97925 1.72277 8.22484 1.72311 8.50074 1.72311C10.708 1.72311 10.9696 1.73104 11.8412 1.77065C12.6472 1.8075 13.0847 1.94218 13.3761 2.05533C13.7618 2.20517 14.0369 2.38428 14.326 2.67362C14.6154 2.96295 14.7945 3.23851 14.9447 3.62429C15.0578 3.91535 15.1927 4.3528 15.2294 5.15881C15.269 6.03026 15.2776 6.29204 15.2776 8.49823C15.2776 10.7044 15.269 10.9662 15.2294 11.8377C15.1925 12.6437 15.0578 13.0811 14.9447 13.3722C14.7948 13.758 14.6154 14.0327 14.326 14.3218C14.0367 14.6112 13.762 14.7903 13.3761 14.9401C13.085 15.0538 12.6472 15.1881 11.8412 15.225C10.9697 15.2646 10.708 15.2732 8.50074 15.2732C6.29335 15.2732 6.03174 15.2646 5.16029 15.225C4.35428 15.1878 3.91683 15.0531 3.62525 14.9399C3.23947 14.7901 2.96391 14.611 2.67458 14.3216C2.38524 14.0323 2.20613 13.7574 2.05595 13.3715C1.9428 13.0804 1.80795 12.643 1.77126 11.837C1.73165 10.9655 1.72373 10.7037 1.72373 8.49617C1.72373 6.2886 1.73165 6.0282 1.77126 5.15674C1.80812 4.35073 1.9428 3.91329 2.05595 3.62188C2.20578 3.2361 2.38524 2.96054 2.67458 2.67121C2.96391 2.38187 3.23947 2.20276 3.62525 2.05258C3.91666 1.93891 4.35428 1.80457 5.16029 1.76755C5.92289 1.7331 6.21843 1.72277 7.75915 1.72105V1.72311ZM12.9135 3.09574C12.3658 3.09574 11.9215 3.53956 11.9215 4.08741C11.9215 4.63508 12.3658 5.07942 12.9135 5.07942C13.4611 5.07942 13.9055 4.63508 13.9055 4.08741C13.9055 3.53974 13.4611 3.09574 12.9135 3.09574ZM8.50079 4.25481C6.15631 4.25481 4.25547 6.15564 4.25547 8.50013C4.25547 10.8446 6.15631 12.7446 8.50079 12.7446C10.8453 12.7446 12.7454 10.8446 12.7454 8.50013C12.7454 6.15564 10.8453 4.25481 8.50079 4.25481ZM8.50076 5.74454C10.0225 5.74454 11.2563 6.97818 11.2563 8.50013C11.2563 10.0219 10.0225 11.2557 8.50076 11.2557C6.97882 11.2557 5.74518 10.0219 5.74518 8.50013C5.74518 6.97818 6.97882 5.74454 8.50076 5.74454Z" fill="#165834"/>
</svg>
