<svg width="17" height="17" viewBox="0 0 17 17" fill="none" xmlns="http://www.w3.org/2000/svg">
<path fill-rule="evenodd" clip-rule="evenodd" d="M16.7667 8.4886C16.7667 9.04766 16.7098 9.60595 16.598 10.1501C16.489 10.6814 16.3275 11.203 16.116 11.7016C15.9093 12.1914 15.653 12.6634 15.3535 13.1035C15.0584 13.5409 14.7185 13.9512 14.3451 14.3253C13.9709 14.6977 13.5592 15.0367 13.122 15.333C12.6804 15.6304 12.2077 15.8864 11.7177 16.094C11.2183 16.3044 10.6955 16.4657 10.1647 16.5745C9.61982 16.6866 9.0595 16.7438 8.49963 16.7438C7.93935 16.7438 7.37906 16.6866 6.83492 16.5745C6.3033 16.4657 5.78055 16.3044 5.28161 16.094C4.79157 15.8864 4.31845 15.6304 3.87685 15.333C3.43968 15.0367 3.02794 14.6977 2.65455 14.3253C2.28076 13.9512 1.94086 13.5409 1.64538 13.1035C1.34747 12.6634 1.09072 12.1913 0.883252 11.7016C0.671704 11.203 0.509857 10.6814 0.400459 10.1501C0.289864 9.60595 0.233337 9.04766 0.233337 8.4886C0.233337 7.92913 0.289832 7.36965 0.400491 6.82665C0.509889 6.29538 0.671737 5.77299 0.883284 5.27519C1.09075 4.78505 1.3475 4.31265 1.64541 3.87246C1.94089 3.43473 2.2808 3.02517 2.65458 2.65069C3.02797 2.27823 3.43971 1.94007 3.87688 1.64421C4.31848 1.3455 4.7916 1.08958 5.28164 0.881567C5.78058 0.670713 6.3033 0.509099 6.83495 0.401087C7.37909 0.289844 7.93938 0.233398 8.49967 0.233398C9.05953 0.233398 9.61982 0.289844 10.1648 0.401087C10.6956 0.509131 11.2183 0.670745 11.7177 0.881567C12.2077 1.08955 12.6804 1.3455 13.122 1.64421C13.5592 1.94007 13.971 2.27823 14.3451 2.65069C14.7185 3.02517 15.0584 3.43473 15.3535 3.87246C15.653 4.31265 15.9093 4.78509 16.116 5.27519C16.3275 5.77299 16.489 6.29538 16.598 6.82665C16.7098 7.36965 16.7667 7.92913 16.7667 8.4886ZM5.48744 2.11217C3.51873 3.0405 2.04939 4.85195 1.59122 7.03507C1.77733 7.03668 4.71926 7.07378 8.10884 6.17446C6.88695 4.00666 5.5815 2.23757 5.48744 2.11217ZM8.69374 7.26001C5.05874 8.34669 1.57064 8.2685 1.44551 8.26369C1.44348 8.33945 1.43985 8.4128 1.43985 8.4886C1.43985 10.2996 2.12406 11.9507 3.24868 13.1991C3.24625 13.1954 5.17823 9.77282 8.98802 8.54262C9.08005 8.51199 9.17372 8.48456 9.26655 8.45797C9.08937 8.05732 8.89597 7.65584 8.69374 7.26001ZM13.162 3.1977C11.9191 2.10329 10.2871 1.43946 8.49961 1.43946C7.92599 1.43946 7.36933 1.50879 6.83609 1.63697C6.94183 1.77887 8.2679 3.5355 9.47526 5.74921C12.1391 4.75199 13.1446 3.22348 13.162 3.1977ZM9.74778 9.6261C9.73205 9.63131 9.71633 9.6358 9.70096 9.64142C5.53559 11.0914 4.17533 14.0136 4.16061 14.0455C5.35913 14.9762 6.86238 15.5377 8.49966 15.5377C9.47731 15.5377 10.4086 15.339 11.2559 14.9791C11.1513 14.3632 10.7412 12.2042 9.74778 9.6261ZM12.4446 14.3349C14.0298 13.2668 15.1556 11.5706 15.4697 9.60591C15.3244 9.55916 13.3492 8.93477 11.0705 9.29958C11.9965 11.8407 12.3728 13.9101 12.4446 14.3349ZM10.0187 6.79966C10.1825 7.13585 10.3412 7.47801 10.4877 7.82188C10.5398 7.94524 10.5907 8.06618 10.6403 8.18708C13.0655 7.88233 15.4548 8.39506 15.557 8.416C15.5408 6.74483 14.9422 5.21108 13.9516 4.01032C13.9383 4.02922 12.806 5.66294 10.0187 6.79966Z" fill="
#165834"/>
</svg>
