<svg width="79" height="79" viewBox="0 0 79 79" fill="none" xmlns="http://www.w3.org/2000/svg">
<g clip-path="url(#clip0)">
<path d="M13.1259 70.1945C12.839 69.9073 12.441 69.7424 12.0352 69.7424C11.6294 69.7424 11.2313 69.9073 10.9443 70.1945C10.6573 70.4816 10.4922 70.8795 10.4922 71.2853C10.4922 71.6911 10.6571 72.0892 10.9443 72.3761C11.2313 72.6631 11.6294 72.8283 12.0352 72.8283C12.441 72.8283 12.839 72.6632 13.1259 72.3761C13.4129 72.0892 13.5781 71.6911 13.5781 71.2853C13.5781 70.8795 13.413 70.4815 13.1259 70.1945Z" fill="black"/>
<path d="M72.4463 28.2267C72.1594 27.9396 71.7628 27.7747 71.3555 27.7747C70.9497 27.7747 70.5516 27.9396 70.2646 28.2267C69.9778 28.5137 69.8125 28.9118 69.8125 29.3176C69.8125 29.7234 69.9776 30.1215 70.2646 30.4084C70.5516 30.6953 70.9497 30.8606 71.3555 30.8606C71.7628 30.8606 72.1594 30.6955 72.4463 30.4084C72.7347 30.1215 72.8998 29.7234 72.8998 29.3176C72.8998 28.9118 72.7347 28.5137 72.4463 28.2267Z" fill="black"/>
<path d="M78.548 0.451936C78.2586 0.162629 77.866 0 77.4567 0L39.5006 0.00200586C38.6485 0.00200586 37.9578 0.692947 37.9578 1.54497V5.9574L23.3321 9.87639C22.5089 10.097 22.0204 10.943 22.2411 11.7661L29.8212 40.0552L23.2638 46.6126C22.4292 45.394 21.0278 44.5926 19.4427 44.5926H4.63071C2.07833 44.5926 0.00195312 46.6691 0.00195312 49.2213V74.3711C0.00195312 76.9235 2.07833 79 4.63071 79H19.4429C21.6112 79 23.4353 77.5009 23.9353 75.4851L25.7698 77.085C27.1861 78.32 29.0007 79.0002 30.8798 79.0002H77.457C78.309 79.0002 79 78.3092 79 77.4572V1.54297C78.9996 1.13377 78.8373 0.741242 78.548 0.451936ZM20.9856 74.3712C20.9856 75.2219 20.2934 75.9142 19.4426 75.9142H4.63055C3.77976 75.9142 3.08758 75.222 3.08758 74.3712V49.2215C3.08758 48.3707 3.77976 47.6785 4.63055 47.6785H10.4937V65.4527C10.4937 66.3048 11.1846 66.9957 12.0366 66.9957C12.8887 66.9957 13.5796 66.3048 13.5796 65.4527V47.6785H19.4427C20.2935 47.6785 20.9857 48.3707 20.9857 49.2215V74.3712H20.9856ZM25.6211 12.4578L37.9578 9.15212V14.8696L36.9237 15.1467C36.5282 15.2527 36.1914 15.5112 35.9868 15.8656C35.7822 16.22 35.7266 16.6411 35.8326 17.0364C36.4256 19.2492 35.1077 21.5317 32.895 22.1246C32.4992 22.2308 32.1617 22.4897 31.9573 22.8449C31.7529 23.1999 31.6978 23.6218 31.8047 24.0174L37.819 46.2883H34.7223L33.1264 40.0448C33.0756 39.8461 32.9868 39.6629 32.8678 39.5037L25.6211 12.4578ZM37.9578 21.9455V34.9652L35.1435 24.5448C36.3191 23.9378 37.2812 23.0296 37.9578 21.9455ZM60.1247 75.9141H30.8795C29.7462 75.9141 28.6518 75.5039 27.7976 74.7592L24.0715 71.5095V50.1692L30.8078 43.4329L32.0295 48.213C32.2042 48.8961 32.8194 49.3738 33.5243 49.3738L63.8597 49.3756C65.0509 49.3756 66.0199 50.3446 66.0199 51.5358C66.0199 52.7269 65.0509 53.6959 63.8597 53.6959H48.3159C47.4638 53.6959 46.7729 54.3869 46.7729 55.2389C46.7729 56.0909 47.4638 56.7819 48.3159 56.7819H68.6892C69.8804 56.7819 70.8494 57.7509 70.8494 58.942C70.8494 60.1332 69.8804 61.1022 68.6892 61.1022H48.3159C47.4638 61.1022 46.7729 61.7931 46.7729 62.6451C46.7729 63.4972 47.4638 64.1881 48.3159 64.1881H65.3877C66.5789 64.1881 67.5479 65.1571 67.5479 66.3483C67.5479 67.5394 66.5789 68.5084 65.3877 68.5084H48.3159C47.4638 68.5084 46.7729 69.1994 46.7729 70.0514C46.7729 70.9034 47.4638 71.5944 48.3159 71.5944H60.1247C61.3158 71.5944 62.2848 72.5634 62.2848 73.7545C62.2847 74.9451 61.3157 75.9141 60.1247 75.9141ZM75.914 75.9141H75.9139H64.9034C65.2026 75.2548 65.3706 74.5238 65.3706 73.7539C65.3706 72.984 65.2026 72.2531 64.9034 71.5938H65.3877C68.2803 71.5938 70.6337 69.2404 70.6337 66.3478C70.6337 65.5041 70.4323 64.7069 70.0768 63.9999C72.2981 63.3898 73.935 61.3538 73.935 58.9417C73.935 57.7715 73.5496 56.6898 72.8995 55.8164V36.2608C72.8995 35.4088 72.2086 34.7179 71.3566 34.7179C70.5045 34.7179 69.8136 35.4088 69.8136 36.2608V53.8186C69.451 53.7391 69.075 53.6959 68.6889 53.6959H68.6383C68.9375 53.0366 69.1055 52.3057 69.1055 51.5358C69.1055 48.643 66.7522 46.2898 63.8596 46.2898H61.3793C64.0129 45.1604 65.8627 42.5426 65.8627 39.5C65.8627 35.4283 62.5502 32.1157 58.4785 32.1157C54.4069 32.1157 51.0943 35.4283 51.0943 39.5C51.0943 42.5426 52.9441 45.1604 55.5777 46.2898H47.1434V16.9515C49.8997 16.3508 52.0747 14.176 52.6752 11.4195H64.2816C64.8821 14.176 67.0571 16.3508 69.8134 16.9515V21.7486C69.8134 22.6006 70.5044 23.2916 71.3564 23.2916C72.2084 23.2916 72.8994 22.6006 72.8994 21.7486V15.574C72.8994 14.7219 72.2084 14.031 71.3564 14.031C69.0656 14.031 67.2021 12.1672 67.2021 9.87654C67.2021 9.02452 66.5112 8.33357 65.6591 8.33357H51.2978C50.4458 8.33357 49.7548 9.02452 49.7548 9.87654C49.7548 12.1674 47.8912 14.031 45.6005 14.031C44.7485 14.031 44.0576 14.7219 44.0576 15.574V46.2897H41.0438V3.08763L75.914 3.08594V75.9141ZM58.4788 43.7984C56.1086 43.7984 54.1805 41.8702 54.1805 39.5002C54.1805 37.1302 56.1088 35.2018 58.4788 35.2018C60.8488 35.2018 62.777 37.13 62.777 39.5C62.777 41.87 60.8489 43.7984 58.4788 43.7984Z" fill="#165834"/>
</g>
<defs>
<clipPath id="clip0">
<rect width="79" height="79" fill="white"/>
</clipPath>
</defs>
</svg>
