<svg width="87" height="87" viewBox="0 0 87 87" fill="none" xmlns="http://www.w3.org/2000/svg">
<path d="M76.1128 46.5858L65.25 45.0364V42.5556C67.5894 40.859 69.2622 38.3981 69.9791 35.5986C70.3404 34.1791 70.5641 32.7281 70.6471 31.2656H70.6875C71.9995 31.2647 73.2669 30.7895 74.2561 29.9275C75.2452 29.0656 75.8893 27.875 76.0697 26.5755C76.25 25.2759 75.9543 23.955 75.2373 22.8563C74.5202 21.7576 73.4301 20.9552 72.1679 20.5971C72.4433 19.5545 72.4012 18.4535 72.0469 17.435V12.2344C72.0469 9.71067 71.0443 7.29034 69.2598 5.50581C67.4753 3.72129 65.055 2.71875 62.5312 2.71875H51.6562C49.1325 2.71875 46.7122 3.72129 44.9277 5.50581C43.1432 7.29034 42.1406 9.71067 42.1406 12.2344V17.435C41.7863 18.4535 41.7442 19.5545 42.0196 20.5971C40.7575 20.9552 39.6673 21.7576 38.9502 22.8563C38.2332 23.955 37.9375 25.2759 38.1178 26.5755C38.2982 27.875 38.9423 29.0656 39.9314 29.9275C40.9206 30.7895 42.188 31.2647 43.5 31.2656H43.5404C43.6229 32.7247 43.8457 34.1724 44.2059 35.5888C44.899 38.4008 46.5779 40.8708 48.9375 42.5501V45.116L35.3453 48.0301C33.3328 48.4666 31.4625 49.4022 29.9062 50.7507V48.9375C29.9064 48.3642 29.7854 47.7973 29.5511 47.274C29.3169 46.7508 28.9746 46.2829 28.5469 45.9012V40.7812C28.5469 40.4207 28.4037 40.075 28.1487 39.82C27.8938 39.5651 27.548 39.4219 27.1875 39.4219H24.4688V36.5227C24.4659 35.869 24.2289 35.2381 23.8006 34.7443C23.3723 34.2505 22.7812 33.9266 22.1345 33.8314L5.4375 31.4461V24.4688H8.15625V28.5469C8.15625 28.9074 8.29947 29.2532 8.5544 29.5081C8.80933 29.763 9.1551 29.9062 9.51562 29.9062H24.7026C25.063 30.9259 25.8138 31.7606 26.7896 32.2268C27.7655 32.6929 28.8866 32.7524 29.9062 32.392V33.9844C29.9062 35.066 30.3359 36.1032 31.1007 36.868C31.8655 37.6328 32.9028 38.0625 33.9844 38.0625C35.066 38.0625 36.1032 37.6328 36.868 36.868C37.6328 36.1032 38.0625 35.066 38.0625 33.9844V17.6719C38.0625 17.3113 37.9193 16.9656 37.6643 16.7107C37.4094 16.4557 37.0637 16.3125 36.7031 16.3125H9.51562C9.1551 16.3125 8.80933 16.4557 8.5544 16.7107C8.29947 16.9656 8.15625 17.3113 8.15625 17.6719V21.75H5.4375C4.7167 21.7509 4.02568 22.0376 3.516 22.5472C3.00632 23.0569 2.7196 23.748 2.71875 24.4688V31.4461C2.72158 32.0997 2.95864 32.7307 3.38692 33.2244C3.81519 33.7182 4.4063 34.0421 5.05297 34.1373L21.75 36.5227V39.4219H19.0312C18.6707 39.4219 18.325 39.5651 18.07 39.82C17.8151 40.075 17.6719 40.4207 17.6719 40.7812V44.8594C16.5907 44.8606 15.5541 45.2906 14.7895 46.0552C14.025 46.8197 13.595 47.8563 13.5938 48.9375V76.927C13.5903 78.8176 14.3172 80.6364 15.6226 82.0039C16.928 83.3714 18.7111 84.1819 20.5998 84.2663C20.7156 84.2715 20.8309 84.2741 20.9458 84.2741C21.9975 84.275 23.0372 84.0504 23.9948 83.6153C24.9523 83.1802 25.8055 82.5449 26.4966 81.7521C26.5173 81.7283 26.5373 81.7039 26.5566 81.6787L36.8464 68.1529L40.0951 63.8906H40.7812V84.2812H43.5V63.8906H70.6875V84.2812H73.4062V67.9688H81.5625V84.2812H84.2812V56.0063C84.2679 53.7196 83.4371 51.5131 81.9391 49.7855C80.441 48.0578 78.3745 46.9229 76.1128 46.5858ZM10.875 19.0312H35.3438V33.9844C35.3438 34.3449 35.2005 34.6907 34.9456 34.9456C34.6907 35.2005 34.3449 35.3438 33.9844 35.3438C33.6238 35.3438 33.2781 35.2005 33.0232 34.9456C32.7682 34.6907 32.625 34.3449 32.625 33.9844V28.5469C32.625 28.1863 32.4818 27.8406 32.2268 27.5857C31.9719 27.3307 31.6262 27.1875 31.2656 27.1875C30.9051 27.1875 30.5593 27.3307 30.3044 27.5857C30.0495 27.8406 29.9062 28.1863 29.9062 28.5469C29.9062 28.9074 29.763 29.2532 29.5081 29.5081C29.2532 29.763 28.9074 29.9062 28.5469 29.9062C28.1863 29.9062 27.8406 29.763 27.5857 29.5081C27.3307 29.2532 27.1875 28.9074 27.1875 28.5469V21.75H24.4688V27.1875H10.875V19.0312ZM56.0742 44.8594H58.1133C59.6246 44.8605 61.1228 44.5799 62.5312 44.032V46.2188C62.5312 47.6609 61.9584 49.0439 60.9386 50.0636C59.9189 51.0834 58.5359 51.6562 57.0938 51.6562C55.6516 51.6562 54.2686 51.0834 53.2489 50.0636C52.2291 49.0439 51.6562 47.6609 51.6562 46.2188V44.032C53.0647 44.5799 54.5629 44.8605 56.0742 44.8594ZM57.0938 54.375C58.4403 54.3744 59.7658 54.0404 60.9519 53.4027C62.1379 52.765 63.1475 51.8435 63.8906 50.7205V61.1719H50.2969V50.7205C51.04 51.8435 52.0496 52.765 53.2356 53.4027C54.4217 54.0404 55.7472 54.3744 57.0938 54.375ZM62.6806 21.3031C58.9817 20.6853 55.2058 20.6853 51.5069 21.3031L47.7786 21.9243C47.3689 21.9921 46.9492 21.9668 46.5506 21.8502C46.1521 21.7336 45.7848 21.5287 45.4763 21.2508C45.1677 20.9729 44.9256 20.6291 44.7681 20.2448C44.6106 19.8606 44.5416 19.4458 44.5663 19.0312H69.6212C69.6459 19.4458 69.5769 19.8606 69.4194 20.2448C69.2619 20.6291 69.0198 20.9729 68.7112 21.2508C68.4026 21.5287 68.0354 21.7336 67.6369 21.8502C67.2383 21.9668 66.8186 21.9921 66.4089 21.9243L62.6806 21.3031ZM73.4062 25.8281C73.4046 26.5487 73.1176 27.2392 72.6081 27.7487C72.0986 28.2582 71.4081 28.5452 70.6875 28.5469V23.1264C70.6929 23.1209 70.6987 23.116 70.7045 23.1107C71.4222 23.1159 72.1087 23.4043 72.6147 23.9133C73.1208 24.4222 73.4052 25.1104 73.4062 25.8281ZM44.8594 12.2344C44.8594 10.4317 45.5755 8.70292 46.8501 7.42826C48.1248 6.1536 49.8536 5.4375 51.6562 5.4375H62.5312C64.3339 5.4375 66.0627 6.1536 67.3374 7.42826C68.612 8.70292 69.3281 10.4317 69.3281 12.2344V16.3125H44.8594V12.2344ZM41.5799 27.7482C41.1999 27.3694 40.9407 26.8865 40.8349 26.3605C40.7291 25.8345 40.7815 25.289 40.9854 24.7927C41.1894 24.2964 41.5358 23.8717 41.9809 23.5721C42.426 23.2725 42.9499 23.1115 43.4864 23.1094L43.5 23.1233V28.5469C42.7798 28.5438 42.0898 28.2568 41.5799 27.7482ZM46.8429 34.9247C46.4261 33.2845 46.2164 31.5986 46.2188 29.9062V24.5736C47.2667 24.9785 49.0564 24.4676 49.0564 24.4676C48.9372 24.8018 48.9072 25.1614 48.9695 25.5108C49.0318 25.8602 49.1842 26.1873 49.4116 26.4597C49.6391 26.7322 49.9337 26.9405 50.2664 27.0642C50.599 27.1879 50.9582 27.2226 51.3084 27.1649C51.6586 27.1071 51.9877 26.959 52.2631 26.7352C52.5384 26.5113 52.7506 26.2194 52.8787 25.8884C53.0067 25.5574 53.0461 25.1987 52.993 24.8478C52.9399 24.4969 52.7961 24.1659 52.5759 23.8876C55.5716 23.449 58.6152 23.449 61.611 23.8876C61.3903 24.166 61.2461 24.4972 61.1927 24.8484C61.1393 25.1996 61.1785 25.5586 61.3065 25.89C61.4345 26.2214 61.6468 26.5136 61.9224 26.7378C62.198 26.9619 62.5274 27.1102 62.8779 27.1679C63.2284 27.2257 63.5879 27.1909 63.9209 27.0671C64.2538 26.9432 64.5487 26.7346 64.7762 26.4618C65.0038 26.189 65.1561 25.8615 65.2183 25.5117C65.2804 25.162 65.2501 24.802 65.1304 24.4676C66.0775 24.6254 66.991 24.7697 67.9511 24.578C68.054 26.3452 67.9689 28.1365 67.9689 29.9062C67.9714 31.6 67.7615 33.2874 67.3443 34.929C66.2818 39.082 62.4471 42.1406 58.1133 42.1406H56.0742C53.9524 42.1349 51.893 41.4224 50.2212 40.1158C48.5494 38.8092 47.3605 36.9828 46.8424 34.9252L46.8429 34.9247ZM20.3906 61.1719H25.8281V63.8906H20.3906V61.1719ZM20.3906 42.1406H25.8281V44.8594H20.3906V42.1406ZM16.3125 48.9375C16.3129 48.5771 16.4563 48.2316 16.7111 47.9767C16.9659 47.7219 17.3115 47.5785 17.6719 47.5781H25.8281C26.1885 47.5785 26.5341 47.7219 26.7889 47.9767C27.0437 48.2316 27.1871 48.5771 27.1875 48.9375V57.0938C27.1871 57.4542 27.0437 57.7997 26.7889 58.0545C26.5341 58.3094 26.1885 58.4527 25.8281 58.4531H17.6719C17.3115 58.4527 16.9659 58.3094 16.7111 58.0545C16.4563 57.7997 16.3129 57.4542 16.3125 57.0938V48.9375ZM16.3125 76.927V60.9374C16.7489 61.0925 17.2087 61.1719 17.6719 61.1719V65.25C17.6719 65.6105 17.8151 65.9563 18.07 66.2112C18.325 66.4662 18.6707 66.6094 19.0312 66.6094H24.4688V77.4844C24.4707 78.5198 24.0771 79.5168 23.3683 80.2717C22.6596 81.0266 21.6894 81.4822 20.6559 81.5455C19.5282 81.4855 18.4631 81.0081 17.668 80.2062C17.2365 79.7763 16.8945 79.2652 16.6618 78.7023C16.4292 78.1395 16.3104 77.5361 16.3125 76.927ZM27.1875 76.3592V66.6094C27.548 66.6094 27.8938 66.4662 28.1487 66.2112C28.4037 65.9563 28.5469 65.6105 28.5469 65.25V62.5613L33.932 67.4943L27.1875 76.3592ZM39.4219 61.1719C39.2126 61.1719 39.0062 61.2202 38.8186 61.3131C38.6311 61.4059 38.4675 61.5408 38.3407 61.7073L35.5859 65.3222L29.1628 59.438C29.6474 58.7524 29.9071 57.9333 29.9062 57.0938V54.8433L29.9548 54.768C31.3326 52.6833 33.4704 51.2193 35.9123 50.6885L40.7812 49.6512V61.1719H39.4219ZM43.5 61.1719V49.0694L47.5781 48.1915V61.1719H43.5ZM66.6094 61.1719V47.9803L70.6875 48.5628V61.1719H66.6094ZM81.5625 65.25H73.4062V48.9467L75.725 49.2773C77.3408 49.5181 78.8173 50.3286 79.8878 51.5626C80.9583 52.7966 81.5523 54.3727 81.5625 56.0063V65.25Z" fill="#00b394"/>
<path d="M48.9375 66.6094H46.2188V69.3281H48.9375V66.6094Z" fill="#00b394"/>
<path d="M67.9688 66.6094H65.25V69.3281H67.9688V66.6094Z" fill="#00b394"/>
<path d="M46.2188 82.9219C46.2188 83.2824 46.362 83.6282 46.6169 83.8831C46.8718 84.138 47.2176 84.2812 47.5781 84.2812H66.6094C66.9699 84.2812 67.3157 84.138 67.5706 83.8831C67.8255 83.6282 67.9688 83.2824 67.9688 82.9219V73.4062C67.9688 73.0457 67.8255 72.7 67.5706 72.445C67.3157 72.1901 66.9699 72.0469 66.6094 72.0469H47.5781C47.2176 72.0469 46.8718 72.1901 46.6169 72.445C46.362 72.7 46.2188 73.0457 46.2188 73.4062V82.9219ZM48.9375 74.7656H65.25V81.5625H48.9375V74.7656Z" fill="#00b394"/>
<path d="M61.8516 32.4432L60.4935 30.0881C59.114 30.8699 57.5534 31.2759 55.9677 31.2656H54.375V33.9844H55.9677C58.0301 33.9946 60.059 33.4631 61.8516 32.4432Z" fill="#00b394"/>
</svg>
