<svg width="92" height="92" viewBox="0 0 92 92" fill="none" xmlns="http://www.w3.org/2000/svg">
<path d="M73.2969 53.5753L66.3453 52.587L61.8125 49.5458V44.9988C61.9494 44.8996 62.0846 44.7978 62.2179 44.6933C64.4913 42.9205 66.1085 40.44 66.8132 37.6445C67.1954 36.1434 67.432 34.609 67.5198 33.0625H67.5625C68.9499 33.0615 70.2902 32.559 71.3362 31.6475C72.3822 30.736 73.0633 29.477 73.254 28.1028C73.4447 26.7286 73.1321 25.3317 72.3738 24.1699C71.6155 23.008 70.4627 22.1595 69.128 21.7808C69.4193 20.6784 69.3748 19.514 69 18.437V12.9375C69 10.2688 67.9399 7.70932 66.0528 5.82224C64.1657 3.93515 61.6063 2.875 58.9375 2.875H47.4375C44.7688 2.875 42.2093 3.93515 40.3223 5.82224C38.4352 7.70932 37.375 10.2688 37.375 12.9375V18.437C37.0003 19.514 36.9557 20.6784 37.2471 21.7808C35.9124 22.1595 34.7596 23.008 34.0013 24.1699C33.243 25.3317 32.9304 26.7286 33.121 28.1028C33.3117 29.477 33.9929 30.736 35.0389 31.6475C36.0848 32.559 37.4251 33.0615 38.8125 33.0625H38.8553C38.9426 34.6065 39.1786 36.1386 39.5598 37.6373C40.2994 40.6117 42.0726 43.2261 44.5625 45.0133V49.5909L39.9729 53.0118C39.9729 53.0118 30.4495 55.0525 30.1875 55.126V30.1875C30.1875 29.8063 30.0361 29.4406 29.7665 29.171C29.4969 28.9014 29.1313 28.75 28.75 28.75H20.125V23H28.75C29.1313 23 29.4969 22.8485 29.7665 22.579C30.0361 22.3094 30.1875 21.9437 30.1875 21.5625C30.1849 19.2758 29.2754 17.0835 27.6584 15.4666C26.0415 13.8497 23.8492 12.9401 21.5625 12.9375H18.6875C16.4008 12.9401 14.2085 13.8497 12.5916 15.4666C10.9747 17.0835 10.0651 19.2758 10.0625 21.5625V41.6875C10.0551 42.8191 10.3671 43.9297 10.9626 44.892C11.5581 45.8542 12.4129 46.6289 13.429 47.127L15.1461 47.9875C14.4768 48.3619 13.9195 48.9078 13.5313 49.5691C13.1431 50.2304 12.9381 50.9832 12.9375 51.75V81.9375C12.9374 83.5351 13.4695 85.0871 14.45 86.3485C15.4304 87.6098 16.8031 88.5085 18.3513 88.9026C19.8995 89.2967 21.5348 89.1637 22.999 88.5247C24.4632 87.8856 25.6727 86.7769 26.4364 85.3737L34.5 73.6323V89.125H37.375V79.0625H48.875V76.1875H37.375V69C37.375 68.6932 37.2769 68.3943 37.0949 68.1473C36.9129 67.9002 36.6566 67.7179 36.3636 67.627C36.0705 67.536 35.756 67.5412 35.4661 67.6419C35.1762 67.7425 34.9262 67.9332 34.7525 68.1862L27.3125 79.0194V75.661C28.1862 75.156 28.9118 74.4302 29.4164 73.5562C29.921 72.6823 30.187 71.691 30.1875 70.6819V58.1512C30.6385 57.9828 39.2896 56.0975 39.2896 56.0975L40.2549 67.682C40.2749 67.9228 40.3554 68.1547 40.4889 68.3562C40.6223 68.5577 40.8044 68.7223 41.0182 68.8348C41.2321 68.9473 41.4709 69.0041 41.7126 68.9998C41.9542 68.9956 42.1909 68.9305 42.4007 68.8106L48.7589 65.1772L51.75 73.5614V89.125H54.625V73.5614L57.6161 65.1772L63.9743 68.8106C64.1842 68.9305 64.4208 68.9956 64.6625 68.9998C64.9041 69.0041 65.1429 68.9473 65.3568 68.8348C65.5707 68.7223 65.7528 68.5577 65.8862 68.3562C66.0196 68.1547 66.1001 67.9228 66.1202 67.682L67.1264 55.6027L72.8895 56.4219C74.5982 56.6764 76.1595 57.5336 77.2915 58.8385C78.4236 60.1434 79.0517 61.81 79.0625 63.5375V89.125H81.9375V63.5375C81.9232 61.119 81.0443 58.7854 79.4597 56.9584C77.875 55.1313 75.6891 53.9313 73.2969 53.5753ZM12.9375 21.5625C12.9392 20.038 13.5456 18.5765 14.6235 17.4985C15.7015 16.4206 17.1631 15.8142 18.6875 15.8125H21.5625C22.8369 15.814 24.0749 16.2382 25.0824 17.0186C26.09 17.799 26.8103 18.8915 27.1305 20.125H18.6875C18.3063 20.125 17.9406 20.2765 17.6711 20.546C17.4015 20.8156 17.25 21.1813 17.25 21.5625V28.75H12.9375V21.5625ZM12.9375 37.375H18.6875V40.25H12.9375V37.375ZM13.271 43.125H20.125C20.5063 43.125 20.8719 42.9735 21.1415 42.704C21.4111 42.4344 21.5625 42.0687 21.5625 41.6875V35.9375C21.5625 35.5563 21.4111 35.1906 21.1415 34.921C20.8719 34.6514 20.5063 34.5 20.125 34.5H12.9375V31.625H27.3125V47.6847C26.851 47.5209 26.3648 47.4373 25.875 47.4375H20.4652L14.7067 44.5515C14.0839 44.2474 13.5792 43.7458 13.271 43.125ZM15.8125 51.75C15.8129 51.3689 15.9645 51.0035 16.234 50.734C16.5035 50.4645 16.8689 50.3129 17.25 50.3125H25.875C26.2561 50.3129 26.6215 50.4645 26.891 50.734C27.1605 51.0035 27.3121 51.3689 27.3125 51.75V60.375C27.3121 60.7561 27.1605 61.1215 26.891 61.391C26.6215 61.6605 26.2561 61.8121 25.875 61.8125H17.25C16.8689 61.8121 16.5035 61.6605 16.234 61.391C15.9645 61.1215 15.8129 60.7561 15.8125 60.375V51.75ZM20.125 86.25C18.9817 86.2487 17.8856 85.7939 17.0771 84.9854C16.2686 84.177 15.8139 83.0808 15.8125 81.9375V64.4403C16.2617 64.5998 18.6875 64.6875 18.6875 64.6875V70.4375C18.6875 73.575 21.128 76.263 24.1374 76.4303C24.2356 76.4349 24.3333 76.4373 24.4307 76.4373H24.4375V81.9375C24.4362 83.0808 23.9814 84.177 23.1729 84.9854C22.3645 85.7939 21.2684 86.2487 20.125 86.25ZM25.3866 73.398C25.0345 73.5245 24.6607 73.5795 24.2871 73.5598C22.7844 73.4757 21.5625 72.0753 21.5625 70.4375V64.6875H25.875C26.3648 64.6877 26.851 64.6041 27.3125 64.4403V70.6819C27.3129 71.2784 27.1277 71.8604 26.7826 72.347C26.4376 72.8337 25.9497 73.201 25.3866 73.398ZM59.0956 22.5274C55.184 21.8741 51.1911 21.8741 47.2794 22.5274L43.3371 23.1844C42.9038 23.256 42.46 23.2292 42.0385 23.1059C41.617 22.9826 41.2287 22.766 40.9024 22.4721C40.576 22.1782 40.3201 21.8146 40.1535 21.4083C39.9869 21.002 39.914 20.5634 39.9401 20.125H66.435C66.4611 20.5634 66.3881 21.002 66.2215 21.4083C66.055 21.8146 65.799 22.1782 65.4727 22.4721C65.1464 22.766 64.7581 22.9826 64.3366 23.1059C63.9151 23.2292 63.4713 23.256 63.038 23.1844L59.0956 22.5274ZM70.4375 27.3125C70.4359 28.0745 70.1324 28.8048 69.5936 29.3436C69.0548 29.8824 68.3245 30.1858 67.5625 30.1875V24.4555C67.5683 24.4497 67.5744 24.4445 67.5805 24.4389C68.3394 24.4444 69.0654 24.7494 69.6005 25.2876C70.1356 25.8258 70.4365 26.5536 70.4375 27.3125ZM40.25 12.9375C40.25 11.0313 41.0073 9.20309 42.3552 7.85517C43.7031 6.50725 45.5313 5.75 47.4375 5.75H58.9375C60.8438 5.75 62.6719 6.50725 64.0199 7.85517C65.3678 9.20309 66.125 11.0313 66.125 12.9375V17.25H40.25V12.9375ZM36.7821 29.343C36.3803 28.9424 36.1063 28.4317 35.9944 27.8755C35.8826 27.3193 35.938 26.7424 36.1537 26.2177C36.3694 25.6929 36.7356 25.2438 37.2063 24.927C37.6769 24.6102 38.2308 24.4398 38.7981 24.4375L38.8125 24.4522V30.1875C38.0509 30.1841 37.3214 29.8806 36.7821 29.343ZM42.3477 36.9321C41.907 35.1975 41.6852 33.4146 41.6875 31.625V25.9857C42.3869 26.1266 43.1062 26.1384 43.8098 26.0204L44.6887 25.8737C44.5625 26.2272 44.5309 26.6075 44.5968 26.9769C44.6627 27.3464 44.8238 27.6922 45.0644 27.9803C45.3049 28.2684 45.6164 28.4887 45.9682 28.6195C46.32 28.7502 46.6998 28.7869 47.0701 28.7259C47.4404 28.6649 47.7883 28.5083 48.0796 28.2716C48.3708 28.0349 48.5952 27.7262 48.7306 27.3762C48.866 27.0262 48.9076 26.6469 48.8515 26.2758C48.7954 25.9048 48.6434 25.5548 48.4105 25.2605C51.5783 24.7967 54.7967 24.7967 57.9645 25.2605C57.7317 25.5548 57.5798 25.9048 57.5237 26.2758C57.4676 26.6469 57.5093 27.0261 57.6447 27.3761C57.7801 27.7261 58.0045 28.0346 58.2957 28.2713C58.5869 28.508 58.9348 28.6646 59.3051 28.7256C59.6754 28.7867 60.0551 28.75 60.4069 28.6193C60.7586 28.4885 61.0702 28.2683 61.3107 27.9803C61.5513 27.6922 61.7125 27.3464 61.7784 26.977C61.8444 26.6076 61.8128 26.2274 61.6867 25.8739C62.6211 26.0295 63.7605 26.183 64.6969 25.9862C64.5813 27.8449 64.6875 29.7563 64.6875 31.625C64.6901 33.4162 64.4682 35.2006 64.027 36.9366C63.4786 39.1116 62.2213 41.042 60.4537 42.423C58.686 43.8039 56.5088 44.5567 54.2656 44.5625H52.1094C49.8636 44.5644 47.6819 43.814 45.9124 42.4311C44.143 41.0481 42.8877 39.1123 42.347 36.9326L42.3477 36.9321ZM52.1094 47.4375H54.2656C55.8637 47.4359 57.4477 47.1385 58.9375 46.5603V50.1181L56.0985 60.375H50.2766L47.4375 50.1174V46.5669C48.9277 47.1432 50.5117 47.4384 52.1094 47.4375ZM55.2511 63.25L53.1875 69.0343L51.124 63.25H55.2511ZM42.9328 65.1953L42.085 55.0234L45.1756 52.7203L47.8503 62.3857L42.9328 65.1953ZM63.4423 65.1953L58.5257 62.3857L61.2291 52.6163L64.3177 54.6884L63.4423 65.1953Z" fill="#FF8149"/>
<path d="M69 76.1875H57.5V79.0625H69V89.125H71.875V69H69V76.1875Z" fill="#FF8149"/>
<path d="M59.425 35.8523L58.45 33.1477C56.1285 33.9467 53.6877 34.3432 51.2327 34.3203H48.875V37.1953H51.2327C54.1546 37.1953 56.9872 36.731 59.425 35.8523Z" fill="#FF8149"/>
<path d="M57.5 11.5H48.875V14.375H57.5V11.5Z" fill="#FF8149"/>
</svg>
