<svg width="27" height="27" viewBox="0 0 27 27" fill="none" xmlns="http://www.w3.org/2000/svg">
<g clip-path="url(#clip0)">
<path d="M24.1911 22.2654L22.9854 7.07179C22.9102 6.09293 22.0824 5.32612 21.1007 5.32612H18.719V5.21907C18.719 2.34125 16.3778 0 13.5 0C10.6222 0 8.2809 2.34125 8.2809 5.21907V5.32612H5.89931C4.91756 5.32612 4.08968 6.09288 4.0148 7.06973L2.80866 22.2675C2.71532 23.4843 3.13745 24.6958 3.96676 25.5911C4.79606 26.4864 5.97166 27 7.1921 27H19.8078C21.0282 27 22.2038 26.4865 23.0332 25.5911C23.8625 24.6957 24.2846 23.4843 24.1911 22.2654ZM9.86241 5.21907C9.86241 3.21332 11.4943 1.5815 13.5 1.5815C15.5057 1.5815 17.1375 3.21337 17.1375 5.21907V5.32612H9.86241V5.21907ZM21.8729 24.5165C21.334 25.0981 20.6007 25.4185 19.8078 25.4185H7.19215C6.39923 25.4185 5.66591 25.0981 5.12707 24.5165C4.58828 23.9348 4.32493 23.179 4.38547 22.3905L5.5915 7.19271C5.60374 7.03281 5.73895 6.90762 5.89931 6.90762H8.2809V8.85537C8.2809 9.29206 8.63496 9.64612 9.07165 9.64612C9.50835 9.64612 9.86241 9.29206 9.86241 8.85537V6.90762H17.1375V8.85537C17.1375 9.29206 17.4916 9.64612 17.9283 9.64612C18.365 9.64612 18.719 9.29206 18.719 8.85537V6.90762H21.1007C21.261 6.90762 21.3962 7.03287 21.4086 7.19481L22.6144 22.3884C22.6751 23.179 22.4117 23.9347 21.8729 24.5165Z" fill="#00b394" stroke="#00b394" stroke-width="0.5"/>
<path d="M17.0625 13.4096C16.7538 13.1008 16.253 13.1008 15.9443 13.4096L12.4134 16.9405L11.0557 15.5828C10.7469 15.274 10.2462 15.274 9.93742 15.5828C9.62861 15.8916 9.62861 16.3922 9.93742 16.7011L11.8543 18.6179C12.0087 18.7723 12.2111 18.8496 12.4134 18.8496C12.6156 18.8496 12.8181 18.7724 12.9724 18.6179L17.0624 14.5279C17.3713 14.2191 17.3713 13.7184 17.0625 13.4096Z" fill="#00b394" stroke="#00b394" stroke-width="0.5"/>
</g>
<defs>
<clipPath id="clip0">
<rect width="27" height="27" fill="white"/>
</clipPath>
</defs>
</svg>
