<svg width="90" height="90" viewBox="0 0 90 90" fill="none" xmlns="http://www.w3.org/2000/svg">
<path d="M35.1562 23.9062C35.9329 23.9062 36.5625 23.2767 36.5625 22.5C36.5625 21.7233 35.9329 21.0938 35.1562 21.0938C34.3796 21.0938 33.75 21.7233 33.75 22.5C33.75 23.2767 34.3796 23.9062 35.1562 23.9062Z" fill="#165834"/>
<path d="M26.7188 23.9062C27.4954 23.9062 28.125 23.2767 28.125 22.5C28.125 21.7233 27.4954 21.0938 26.7188 21.0938C25.9421 21.0938 25.3125 21.7233 25.3125 22.5C25.3125 23.2767 25.9421 23.9062 26.7188 23.9062Z" fill="#165834"/>
<path d="M30.9375 32.3438C34.0397 32.3438 36.5625 29.8209 36.5625 26.7188H33.75C33.75 28.2698 32.4886 29.5312 30.9375 29.5312C29.3864 29.5312 28.125 28.2698 28.125 26.7188H25.3125C25.3125 29.8209 27.8353 32.3438 30.9375 32.3438Z" fill="#165834"/>
<path d="M83.9644 44.3433L70.2295 34.8356C70.2844 34.4616 70.3125 34.1016 70.3125 33.75C70.3125 29.0967 66.5283 25.3125 61.875 25.3125C60.1172 25.3125 58.4227 25.8623 56.9728 26.903C56.6002 27.1688 56.3822 27.6005 56.3864 28.0575C56.3906 28.5145 56.6156 28.9406 56.9925 29.2008L59.8627 31.1878C60.4997 31.6294 60.66 32.5069 60.2198 33.1439C59.7923 33.7598 58.8811 33.9286 58.2623 33.5011L55.7297 31.7475C55.3247 31.4677 54.803 31.4184 54.353 31.6209C53.9044 31.822 53.5922 32.2439 53.5331 32.7319L53.5078 32.9175C53.4698 33.1917 53.4375 33.4659 53.4375 33.75C53.4375 38.4033 57.2217 42.1875 61.875 42.1875C62.9677 42.1875 64.0406 41.9667 65.0728 41.5294L65.7661 42.0089L60.1214 50.0723L50.6447 43.4377C48.2189 41.7403 45.3881 40.6209 42.4561 40.2005L37.6973 39.5227L36.8831 36.27C38.3723 35.3109 39.6028 33.9792 40.5014 32.3423H42.1875C45.2897 32.3423 47.8125 29.8195 47.8125 26.7173V18.2798H49.2187C51.5447 18.2798 53.4375 16.387 53.4375 14.0611C53.4375 11.7352 51.5447 9.84234 49.2187 9.84234H46.6425C44.422 4.75875 39.3609 1.40625 33.75 1.40625H28.125C20.3709 1.40625 14.0625 7.71469 14.0625 15.4688V16.875V18.2812V26.7188C14.0625 29.8209 16.5853 32.3438 19.6875 32.3438H21.3722C22.2694 33.9792 23.4998 35.3123 24.9905 36.2714L24.1762 39.5241L18.2573 40.3692C16.0959 40.68 13.9936 41.4816 12.1767 42.6923C8.07469 45.4261 5.625 50.0034 5.625 54.9338V67.5C5.625 71.377 8.77922 74.5312 12.6562 74.5312H14.0625V88.5938H47.8125V58.4142L57.008 62.4994C58.1695 63.0183 59.407 63.2812 60.6839 63.2812C63.6511 63.2812 66.4327 61.8244 68.1216 59.3845L75.4903 48.742L79.1606 51.2831C79.8722 51.7711 80.7019 52.0312 81.5611 52.0312C82.9434 52.0312 84.2414 51.3534 85.0317 50.2144C86.355 48.3033 85.8769 45.6694 83.9644 44.3433ZM28.7972 45.1519L25.3125 48.6366V42.5391L28.7972 45.1519ZM30.9375 46.9884L34.5741 50.625H27.3009L30.9375 46.9884ZM36.5625 42.5391V48.6366L33.0778 45.1519L36.5625 42.5391ZM42.1875 29.5312H41.632C41.9892 28.2319 42.1875 26.8214 42.1875 25.3125V23.9062C43.7386 23.9062 45 25.1677 45 26.7188C45 28.2698 43.7386 29.5312 42.1875 29.5312ZM45 21.8756C44.1689 21.3919 43.2169 21.0938 42.1875 21.0938V18.2812H45V21.8756ZM49.2187 12.6562C49.995 12.6562 50.625 13.2863 50.625 14.0625C50.625 14.8387 49.995 15.4688 49.2187 15.4688H31.178C31.7587 13.8319 33.3225 12.6562 35.1562 12.6562H49.2187ZM28.125 4.21875H33.75C37.8127 4.21875 41.5125 6.41391 43.4967 9.84375H35.1562C31.7602 9.84375 28.9195 12.2639 28.267 15.4688H16.875C16.875 9.26578 21.922 4.21875 28.125 4.21875ZM19.6875 18.2812V21.0938C18.6581 21.0938 17.7061 21.3919 16.875 21.8756V18.2812H19.6875ZM19.6875 29.5312C18.1364 29.5312 16.875 28.2698 16.875 26.7188C16.875 25.1677 18.1364 23.9062 19.6875 23.9062V25.3125C19.6875 26.8214 19.8858 28.2319 20.243 29.5312H19.6875ZM22.5 25.3125V18.2812H39.375V25.3125C39.375 31.2919 36.0633 35.1562 30.9375 35.1562C25.8117 35.1562 22.5 31.2919 22.5 25.3125ZM30.9375 37.9688C32.1244 37.9688 33.2437 37.7958 34.2886 37.478L34.972 40.2173L30.9375 43.2422L26.903 40.2173L27.5864 37.478C28.6312 37.7958 29.7506 37.9688 30.9375 37.9688ZM18.6567 43.1536L22.5 42.6037V53.4375H39.375V42.6037L42.0581 42.9877C43.0608 43.1311 44.0409 43.3955 45 43.7245V77.3438H42.1875V56.25H19.6875V63.2812H16.875V43.5684C17.46 43.3898 18.052 43.2394 18.6567 43.1536ZM22.5 80.1562V74.5312H28.125C31.2272 74.5312 33.75 72.0084 33.75 68.9062C33.75 65.8041 31.2272 63.2812 28.125 63.2812H22.5V59.0625H39.375V80.1562H22.5ZM28.125 66.0938C29.6761 66.0938 30.9375 67.3552 30.9375 68.9062C30.9375 70.4573 29.6761 71.7188 28.125 71.7188H25.3125V66.0938H28.125ZM8.4375 67.5V54.9338C8.4375 50.9442 10.4189 47.243 13.7377 45.0309C13.8417 44.9606 13.9556 44.9058 14.0625 44.8397V63.2812V64.6875V66.0938H22.5V71.7188H12.6562C10.3303 71.7188 8.4375 69.8259 8.4375 67.5ZM19.6875 74.5312V77.3438H16.875V74.5312H19.6875ZM16.875 80.1562H19.6875V82.9688H29.5312V85.7812H16.875V80.1562ZM32.3437 85.7812V82.9688H42.1875V80.1562H45V85.7812H32.3437ZM65.8097 57.7828C64.6453 59.4647 62.7286 60.4688 60.6839 60.4688C59.8036 60.4688 58.9528 60.2873 58.1512 59.9302L47.8125 55.3359V44.9916C48.2273 45.2292 48.6422 45.4683 49.0331 45.7425L60.8147 53.9887L64.838 48.2414L69.9061 51.8653L65.8097 57.7828ZM71.5064 49.5534L66.4495 45.938L68.078 43.6106L73.177 47.1403L71.5064 49.5534ZM82.7198 48.6113C82.2923 49.2272 81.3811 49.3959 80.7623 48.9684L66.0023 38.7506C65.7619 38.5847 65.482 38.5003 65.2022 38.5003C64.9716 38.5003 64.7409 38.5566 64.53 38.6705C63.6722 39.1388 62.7792 39.375 61.875 39.375C59.4956 39.375 57.4552 37.8886 56.6339 35.7961L56.6606 35.8144C58.5127 37.0927 61.2506 36.5948 62.5303 34.747C63.8536 32.8359 63.3769 30.202 61.463 28.8759L60.5953 28.2755C61.013 28.1756 61.4405 28.125 61.875 28.125C64.9772 28.125 67.5 30.6478 67.5 33.75C67.5 34.1662 67.4381 34.6008 67.3059 35.1211C67.1611 35.6906 67.3875 36.2897 67.8684 36.623L82.3626 46.6566C82.6706 46.8689 82.8773 47.1909 82.9448 47.5622C83.0123 47.9334 82.9322 48.3061 82.7198 48.6113Z" fill="#165834"/>
</svg>
