<svg width="90" height="90" viewBox="0 0 90 90" fill="none" xmlns="http://www.w3.org/2000/svg">
<g clip-path="url(#clip0)">
<path d="M67.9395 75.7919C67.9395 74.7356 67.6666 73.7101 67.1681 72.8058C70.5423 70.4339 70.5413 65.1455 67.1681 62.7745C69.4678 58.7414 66.3822 53.5226 61.7335 53.5824H50.3215V38.0944C50.2349 35.7611 46.8863 35.7629 46.8006 38.0944V53.5824H43.2089V38.0944C43.1223 35.7611 39.7737 35.7629 39.688 38.0944V49.2121C33.5561 49.7367 28.0318 52.9796 24.5429 58.1258H22.0521C19.7187 58.2124 19.7205 61.561 22.0521 61.6467H25.5024C26.1157 61.6467 26.6849 61.3276 27.0046 60.804C29.8027 56.2242 34.4649 53.2907 39.6878 52.7487V55.3427C39.6878 56.315 40.4762 57.1032 41.4483 57.1032H61.7335C64.3309 57.101 65.4062 60.4832 63.2776 61.9791C62.6998 62.3895 62.4243 63.1063 62.5787 63.798C62.7331 64.4897 63.2873 65.0214 63.9848 65.1471C66.9117 65.7461 66.9096 69.8348 63.9848 70.4327C62.4703 70.683 62.0136 72.7302 63.2775 73.6006C65.2233 74.9537 64.5177 78.0183 62.2066 78.4345C61.5091 78.5602 60.9549 79.0918 60.8005 79.7835C60.6461 80.4752 60.9216 81.1921 61.4994 81.6024C63.576 83.0421 62.6065 86.4581 60.1192 86.4784H41.4483C35.9234 86.4784 30.7271 83.7437 27.5477 79.1633C27.2188 78.6894 26.6784 78.4067 26.1015 78.4067H22.0521C19.7187 78.4933 19.7205 81.8418 22.0521 81.9276H25.2061C29.0768 86.9988 35.0805 89.9993 41.4483 89.9993H60.1192C64.665 90.0644 67.6647 84.7797 65.3897 80.8072C66.9505 79.6696 67.9395 77.8315 67.9395 75.7919Z" fill="#165834"/>
<path fill-rule="evenodd" clip-rule="evenodd" d="M45.0037 40.7617C56.2666 40.7617 65.4526 31.5756 65.4526 20.3129C64.4066 -6.77477 25.5967 -6.76738 24.5547 20.3131C24.5549 31.5758 33.7408 40.7617 45.0037 40.7617Z" fill="#A3BD9A"/>
<path d="M42.7819 26.5187C42.3151 26.5187 41.8672 26.3331 41.5371 26.003L37.0918 21.5577C36.4043 20.87 36.4043 19.7555 37.0918 19.0679C37.7796 18.3804 38.8939 18.3806 39.5816 19.0679L42.7821 22.2686L50.4281 14.6225C51.1156 13.9351 52.2303 13.9352 52.918 14.6225C53.6054 15.3102 53.6054 16.4247 52.918 17.1123L44.0271 26.003C43.6967 26.3333 43.249 26.5187 42.7819 26.5187Z" fill="#165834"/>
</g>
<defs>
<clipPath id="clip0">
<rect width="90" height="90" fill="white"/>
</clipPath>
</defs>
</svg>
