<svg width="98" height="98" viewBox="0 0 98 98" fill="none" xmlns="http://www.w3.org/2000/svg">
<g clip-path="url(#clip0)">
<path d="M92.3526 14.5396H88.29V10.6935C88.29 9.90068 87.6472 9.25793 86.8544 9.25793H78.199C77.4062 9.25793 76.7635 9.90068 76.7635 10.6935V14.5396H29.3368V10.6935C29.3368 9.90068 28.6941 9.25793 27.9013 9.25793H19.2459C18.4531 9.25793 17.8103 9.90068 17.8103 10.6935V14.5396H14.4565C10.9513 14.5396 8.09991 17.3912 8.09991 20.8962V55.8261C8.09991 56.6189 8.74266 57.2617 9.53546 57.2617C10.3283 57.2617 10.971 56.6189 10.971 55.8261V20.8964C10.971 18.9745 12.5346 17.4109 14.4565 17.4109H92.3526C93.8834 17.4109 95.1289 18.6564 95.1289 20.1872V67.6619C95.1289 69.1928 93.8834 70.4383 92.3526 70.4383H89.2931V65.005C89.2931 64.2122 88.6504 63.5695 87.8576 63.5695H72.4327C71.6399 63.5695 70.9972 64.2122 70.9972 65.005V70.4383H47.9886L53.4203 68.9529C56.2336 68.1854 58.6991 66.5879 60.5506 64.333L69.7764 53.0936C69.9601 52.8704 70.0775 52.5812 70.0995 52.2928L70.913 41.5771C70.9933 40.5178 70.3506 39.4777 69.3739 39.0689C69.8087 38.8222 70.1027 38.3559 70.1027 37.8202C70.1027 37.0273 69.46 36.3846 68.6672 36.3846H62.3766C61.5838 36.3846 60.9411 37.0273 60.9411 37.8202C60.9411 38.613 61.5838 39.2557 62.3766 39.2557H67.072C66.9149 39.3552 66.7661 39.4729 66.6297 39.6096L61.3616 44.8777C60.3441 45.8948 59.5065 47.1723 58.6048 48.2935C58.1079 48.9114 58.2059 49.815 58.8237 50.3119C59.4416 50.8088 60.3452 50.7108 60.8421 50.0929L62.4936 48.0397L66.7319 52.278L58.3318 62.5116C56.8603 64.3037 54.9007 65.5735 52.6639 66.1837L29.9953 72.7068C28.2397 73.2697 29.1144 76.0038 30.8717 75.4409L35.8578 73.8422V85.871H33.8634C33.0706 85.871 32.4278 86.5137 32.4278 87.3065C32.4278 88.0993 33.0706 88.7421 33.8634 88.7421H42.639C43.4318 88.7421 44.0745 88.0993 44.0745 87.3065C44.0745 86.5137 43.4318 85.871 42.639 85.871H38.7291V73.3092H92.3526C95.4665 73.3092 98 70.7757 98 67.6617V20.187C98 17.0731 95.4665 14.5396 92.3526 14.5396ZM79.6346 12.129H85.4189V14.5388H79.6346V12.129ZM20.6814 12.129H26.4657V14.5388H20.6814V12.129ZM67.9772 42.3222L67.4734 48.9588L64.407 45.8925L67.9772 42.3222ZM73.8683 70.4381V66.4404H86.422V70.4381H73.8683Z" fill="#A3A3A3"/>
<path d="M27.0086 85.871H8.57691V78.2484C8.57691 73.4062 9.69358 68.5747 11.8241 64.226C12.9894 61.8481 15.4526 60.3117 18.0994 60.3117H42.2893C47.3453 60.3117 52.2635 58.525 56.1383 55.2804C56.7462 54.7715 56.8264 53.8659 56.3175 53.2582C55.8083 52.6501 54.903 52.5701 54.2953 53.0791C50.9365 55.8916 46.6727 57.4406 42.2895 57.4406H31.8938C33.5043 55.7643 34.4973 53.4908 34.4973 50.9883V45.7168C38.1877 45.4733 41.1162 42.3953 41.1162 38.6445C41.1162 34.7343 37.9358 31.5529 34.0265 31.5529C31.6366 31.4969 29.3615 32.0531 27.6865 33.8755C26.8679 34.7628 25.7064 35.2718 24.5002 35.2718H20.5553C17.2603 35.2718 14.5796 37.9534 14.5796 41.2494V52.0083C14.5796 53.2299 14.8732 54.4287 15.6113 55.4203C15.9441 55.8675 16.3538 56.2566 16.8168 56.5671C17.3161 56.902 18.0444 57.0234 18.4454 57.4406C14.6022 57.3761 10.9521 59.4814 9.24607 62.9627C6.92336 67.7036 5.70601 72.9692 5.70601 78.2484V85.871H1.43555C0.642742 85.871 0 86.5137 0 87.3065C0 88.0993 0.642742 88.7421 1.43555 88.7421H27.0086C27.8014 88.7421 28.4441 88.0993 28.4441 87.3065C28.4441 86.5137 27.8014 85.871 27.0086 85.871ZM24.7661 57.428C23.965 57.3788 23.1866 57.1784 22.4686 56.8467C22.8017 56.6758 23.1246 56.465 23.4134 56.2267C24.6066 55.2421 25.2639 53.7848 25.2639 52.1234V45.7342H31.6262V50.9883C31.6262 54.5462 28.7308 57.4406 25.172 57.4406C25.0197 57.4406 24.8912 57.4368 24.7661 57.428ZM17.4505 52.0085V41.2496C17.4505 39.5367 18.8432 38.1431 20.5551 38.1431H24.5C26.5057 38.1431 28.4363 37.2972 29.7985 35.8203C30.9265 34.593 32.4573 34.3658 34.0263 34.424C36.3525 34.424 38.2449 36.3174 38.2449 38.6445C38.2449 40.9707 36.3525 42.8631 34.0263 42.8631H23.8282C23.0354 42.8631 22.3926 43.5059 22.3926 44.2987V52.1234C22.3926 53.798 20.915 54.8494 19.3137 54.5439C18.0312 54.2993 17.4505 53.2553 17.4505 52.0085Z" fill="#A3A3A3"/>
<path d="M49.1409 31.1826H56.959C57.7519 31.1826 58.3946 30.5398 58.3946 29.747V24.4646C58.3946 23.6718 57.7519 23.029 56.959 23.029H49.1409C48.3481 23.029 47.7053 23.6718 47.7053 24.4646V29.747C47.7053 30.5398 48.3481 31.1826 49.1409 31.1826ZM50.5764 25.9001H55.5235V28.3115H50.5764V25.9001Z" fill="#A3A3A3"/>
<path d="M47.7053 40.4612C47.7053 41.254 48.3481 41.8967 49.1409 41.8967H56.959C57.7519 41.8967 58.3946 41.254 58.3946 40.4612V35.1786C58.3946 34.3858 57.7519 33.743 56.959 33.743H49.1409C48.3481 33.743 47.7053 34.3858 47.7053 35.1786V40.4612ZM50.5764 36.6141H55.5235V39.0256H50.5764V36.6141Z" fill="#A3A3A3"/>
<path d="M62.3766 28.5414H87.8576C88.6504 28.5414 89.2931 27.8986 89.2931 27.1058C89.2931 26.313 88.6504 25.6703 87.8576 25.6703H62.3766C61.5838 25.6703 60.9411 26.313 60.9411 27.1058C60.9411 27.8986 61.5838 28.5414 62.3766 28.5414Z" fill="#A3A3A3"/>
</g>
<defs>
<clipPath id="clip0">
<rect width="98" height="98" fill="white"/>
</clipPath>
</defs>
</svg>
