<svg width="18" height="18" viewBox="0 0 18 18" fill="none" xmlns="http://www.w3.org/2000/svg">
<rect width="18" height="18" rx="4" fill="#FF8149" fill-opacity="0.3"/>
<path d="M12.9375 4.5H10.875V4.125C10.875 3.50468 10.3703 3 9.75 3H8.25C7.62968 3 7.125 3.50468 7.125 4.125V4.5H5.0625C4.54556 4.5 4.125 4.92056 4.125 5.4375V6.75C4.125 6.95709 4.29291 7.125 4.5 7.125H4.70494L5.02891 13.9285C5.05753 14.5294 5.55112 15 6.15262 15H11.8474C12.4489 15 12.9425 14.5294 12.9711 13.9285L13.2951 7.125H13.5C13.7071 7.125 13.875 6.95709 13.875 6.75V5.4375C13.875 4.92056 13.4544 4.5 12.9375 4.5ZM7.875 4.125C7.875 3.91823 8.04323 3.75 8.25 3.75H9.75C9.95677 3.75 10.125 3.91823 10.125 4.125V4.5H7.875V4.125ZM4.875 5.4375C4.875 5.33412 4.95912 5.25 5.0625 5.25H12.9375C13.0409 5.25 13.125 5.33412 13.125 5.4375V6.375C13.0094 6.375 5.3539 6.375 4.875 6.375V5.4375ZM12.2219 13.8928C12.2124 14.0931 12.0479 14.25 11.8474 14.25H6.15262C5.95212 14.25 5.78759 14.0931 5.77807 13.8928L5.45578 7.125H12.5442L12.2219 13.8928Z" fill="black"/>
<path d="M9 13.5C9.20709 13.5 9.375 13.3321 9.375 13.125V8.25C9.375 8.04291 9.20709 7.875 9 7.875C8.79291 7.875 8.625 8.04291 8.625 8.25V13.125C8.625 13.3321 8.79288 13.5 9 13.5Z" fill="black"/>
<path d="M10.875 13.5C11.0821 13.5 11.25 13.3321 11.25 13.125V8.25C11.25 8.04291 11.0821 7.875 10.875 7.875C10.6679 7.875 10.5 8.04291 10.5 8.25V13.125C10.5 13.3321 10.6679 13.5 10.875 13.5Z" fill="black"/>
<path d="M7.125 13.5C7.33209 13.5 7.5 13.3321 7.5 13.125V8.25C7.5 8.04291 7.33209 7.875 7.125 7.875C6.91791 7.875 6.75 8.04291 6.75 8.25V13.125C6.75 13.3321 6.91788 13.5 7.125 13.5Z" fill="black"/>
</svg>
