<svg width="16" height="13" viewBox="0 0 16 13" fill="none" xmlns="http://www.w3.org/2000/svg">
<path fill-rule="evenodd" clip-rule="evenodd" d="M8.03578 3.59864L8.0683 4.13498L7.52621 4.0693C5.55298 3.81755 3.82911 2.9638 2.36545 1.52992L1.64988 0.818458L1.46557 1.34385C1.07526 2.51503 1.32462 3.75188 2.13777 4.58375C2.57144 5.04346 2.47387 5.10914 1.72577 4.8355C1.46557 4.74793 1.23789 4.68226 1.2162 4.7151C1.14031 4.79171 1.40052 5.78777 1.60651 6.18181C1.8884 6.72909 2.46303 7.26542 3.09186 7.58285L3.62311 7.83459L2.99428 7.84554C2.38713 7.84554 2.36545 7.85649 2.4305 8.08634C2.64734 8.79781 3.50385 9.55306 4.45794 9.88142L5.13014 10.1113L4.54468 10.4615C3.67732 10.965 2.65818 11.2496 1.63904 11.2715C1.15115 11.2825 0.75 11.3262 0.75 11.3591C0.75 11.4685 2.07272 12.0815 2.84249 12.3223C5.15182 13.0338 7.89483 12.7273 9.9548 11.5123C11.4185 10.6476 12.8821 8.92916 13.5652 7.26542C13.9338 6.37883 14.3024 4.75888 14.3024 3.98174C14.3024 3.47824 14.3349 3.41257 14.9421 2.81056C15.2999 2.4603 15.636 2.0772 15.701 1.96775C15.8094 1.75978 15.7986 1.75978 15.2457 1.94586C14.3241 2.27422 14.194 2.23044 14.6494 1.73789C14.9855 1.38763 15.3866 0.752784 15.3866 0.566709C15.3866 0.533872 15.224 0.5886 15.0397 0.68711C14.8445 0.796566 14.4108 0.960751 14.0856 1.05926L13.5001 1.24534L12.9689 0.884131C12.6761 0.68711 12.2641 0.468198 12.0473 0.402524C11.4944 0.249286 10.6487 0.271177 10.15 0.446307C8.79471 0.938859 7.9382 2.20855 8.03578 3.59864Z" fill="
#165834"/>
</svg>
