<svg width="28" height="28" viewBox="0 0 28 28" fill="none" xmlns="http://www.w3.org/2000/svg">
<path d="M14 28C6.2678 28 0 21.7322 0 14C0 6.2678 6.2678 0 14 0C21.7322 0 28 6.2678 28 14C28 21.7322 21.7322 28 14 28ZM7.0182 22.7584C8.99997 24.3428 11.4628 25.204 14 25.2C16.758 25.2 19.2822 24.2032 21.2338 22.5512C20.322 21.6156 19.2319 20.8724 18.0278 20.3655C16.8238 19.8586 15.5304 19.5983 14.224 19.6C12.8696 19.5984 11.5297 19.8784 10.2893 20.4221C9.0488 20.9658 7.93489 21.7614 7.0182 22.7584ZM5.0624 20.748C6.23904 19.4993 7.65894 18.5048 9.23459 17.8258C10.8103 17.1468 12.5083 16.7977 14.224 16.8C15.8783 16.7978 17.5168 17.1225 19.0452 17.7553C20.5737 18.3882 21.9622 19.3167 23.1308 20.4876C24.3293 18.8008 25.0371 16.8149 25.1756 14.7503C25.3141 12.6857 24.8779 10.623 23.9155 8.79124C22.953 6.95943 21.5019 5.43007 19.7232 4.37282C17.9444 3.31557 15.9075 2.77177 13.8384 2.80175C11.7694 2.83173 9.74912 3.43432 8.00173 4.54266C6.25433 5.651 4.84814 7.22176 3.93917 9.08068C3.03019 10.9396 2.65397 13.014 2.85224 15.0737C3.05051 17.1335 3.81552 19.098 5.0624 20.7494V20.748ZM14 15.4C12.5148 15.4 11.0904 14.81 10.0402 13.7598C8.99 12.7096 8.4 11.2852 8.4 9.8C8.4 8.31479 8.99 6.89041 10.0402 5.8402C11.0904 4.79 12.5148 4.2 14 4.2C15.4852 4.2 16.9096 4.79 17.9598 5.8402C19.01 6.89041 19.6 8.31479 19.6 9.8C19.6 11.2852 19.01 12.7096 17.9598 13.7598C16.9096 14.81 15.4852 15.4 14 15.4ZM14 12.6C14.7426 12.6 15.4548 12.305 15.9799 11.7799C16.505 11.2548 16.8 10.5426 16.8 9.8C16.8 9.05739 16.505 8.3452 15.9799 7.8201C15.4548 7.295 14.7426 7 14 7C13.2574 7 12.5452 7.295 12.0201 7.8201C11.495 8.3452 11.2 9.05739 11.2 9.8C11.2 10.5426 11.495 11.2548 12.0201 11.7799C12.5452 12.305 13.2574 12.6 14 12.6Z" fill="#165834"/>
</svg>
