<svg width="79" height="79" viewBox="0 0 79 79" fill="none" xmlns="http://www.w3.org/2000/svg">
<g clip-path="url(#clip0)">
<path d="M75.408 39.8313V28.728C75.408 24.963 72.4877 21.9011 68.7979 21.6042L58.4865 3.59381C57.531 1.92811 55.988 0.737572 54.1417 0.243213C52.3041 -0.24778 50.3825 0.0100883 48.7379 0.967331L13.3899 21.5463H7.18176C3.22099 21.5463 0 24.7671 0 28.728V71.8182C0 75.779 3.22082 79 7.18176 79H68.2263C72.187 79 75.408 75.7792 75.408 71.8182V60.7149C77.4934 59.9713 78.9988 57.9971 78.9988 55.6594V44.8869C78.9988 42.5492 77.4934 40.575 75.408 39.8313ZM64.6254 21.5463H48.9764L60.7133 14.7131L64.6254 21.5463ZM58.9292 11.597L41.8397 21.5463H34.7512L57.1568 8.50138L58.9292 11.597ZM50.5455 4.07067C51.3573 3.5955 52.3058 3.46926 53.2124 3.7113C54.1294 3.95671 54.8939 4.54937 55.3691 5.37869L55.3728 5.38525L27.6149 21.5463H20.5268L50.5455 4.07067ZM71.8171 71.8182C71.8171 73.7977 70.2057 75.409 68.2263 75.409H7.18176C5.2023 75.409 3.59096 73.7977 3.59096 71.8182V28.728C3.59096 26.7486 5.2023 25.1372 7.18176 25.1372H68.2263C70.2057 25.1372 71.8171 26.7486 71.8171 28.728V39.5006H61.0445C55.1041 39.5006 50.272 44.3327 50.272 50.2731C50.272 56.2135 55.1041 61.0457 61.0445 61.0457H71.8171V71.8182ZM75.408 55.6594C75.408 56.65 74.6033 57.4549 73.6125 57.4549H61.0445C57.0837 57.4549 53.8628 54.2341 53.8628 50.2731C53.8628 46.3124 57.0836 43.0914 61.0445 43.0914H73.6125C74.6031 43.0914 75.408 43.8961 75.408 44.8869V55.6594Z" fill="#165834"/>
<path d="M61.0439 46.6823C59.0645 46.6823 57.4531 48.2937 57.4531 50.2731C57.4531 52.2526 59.0645 53.8639 61.0439 53.8639C63.0234 53.8639 64.6347 52.2526 64.6347 50.2731C64.6349 48.2937 63.0235 46.6823 61.0439 46.6823Z" fill="#165834"/>
</g>
<defs>
<clipPath id="clip0">
<rect width="79" height="79" fill="white"/>
</clipPath>
</defs>
</svg>
