<svg width="17" height="13" viewBox="0 0 17 13" fill="none" xmlns="http://www.w3.org/2000/svg">
<path fill-rule="evenodd" clip-rule="evenodd" d="M14.9594 1.17143C15.6708 1.36664 16.231 1.94183 16.4212 2.67227C16.7667 3.99611 16.7667 6.75832 16.7667 6.75832C16.7667 6.75832 16.7667 9.52043 16.4212 10.8444C16.231 11.5748 15.6708 12.15 14.9594 12.3453C13.6701 12.7 8.5 12.7 8.5 12.7C8.5 12.7 3.32986 12.7 2.04054 12.3453C1.32914 12.15 0.768886 11.5748 0.578753 10.8444C0.233337 9.52043 0.233337 6.75832 0.233337 6.75832C0.233337 6.75832 0.233337 3.99611 0.578753 2.67227C0.768886 1.94183 1.32914 1.36664 2.04054 1.17143C3.32986 0.81665 8.5 0.81665 8.5 0.81665C8.5 0.81665 13.6701 0.81665 14.9594 1.17143ZM6.95002 4.43326V9.59993L11.0834 7.01669L6.95002 4.43326Z" fill="
#165834"/>
</svg>
